<svg width="850" height="258" viewBox="0 0 850 258" fill="none" xmlns="http://www.w3.org/2000/svg">
<g filter="url(#filter0_d_58_411)">
<rect x="69.7451" y="30.2572" width="780.167" height="192.263" rx="50" transform="rotate(0.0828425 69.7451 30.2572)" fill="white"/>
<rect x="70.2444" y="30.7579" width="779.167" height="191.263" rx="49.5" transform="rotate(0.0828425 70.2444 30.7579)" stroke="black"/>
</g>
<g filter="url(#filter1_d_58_411)">
<ellipse cx="128.047" cy="123.619" rx="104.011" ry="104.439" transform="rotate(11.1762 128.047 123.619)" fill="#EE00A7"/>
</g>
<path d="M93.4743 178.015L93.5274 155.455C105.501 144.177 114.857 134.332 121.597 125.921C128.337 117.404 131.714 110.318 131.727 104.665C131.736 100.932 130.676 98.1557 128.547 96.3373C126.418 94.4123 123.647 93.4458 120.234 93.4377C113.087 93.4209 106.202 95.5914 99.5782 99.9491L91.797 74.9707C96.7109 71.8889 102.103 69.555 107.973 67.9688C113.951 66.3829 119.819 65.5967 125.579 65.6102C134.326 65.6308 141.522 67.1945 147.168 70.3011C152.814 73.4077 157.018 77.631 159.778 82.9708C162.646 88.3109 164.071 94.3943 164.055 101.221C164.031 111.568 160.702 121.106 154.068 129.838C147.541 138.569 137.761 146.866 124.729 154.728L163.289 154.819L163.234 178.179L93.4743 178.015Z" fill="white"/>
<defs>
<filter id="filter0_d_58_411" x="35.5396" y="30.3295" width="814.3" height="227.246" filterUnits="userSpaceOnUse" color-interpolation-filters="sRGB">
<feFlood flood-opacity="0" result="BackgroundImageFix"/>
<feColorMatrix in="SourceAlpha" type="matrix" values="0 0 0 0 0 0 0 0 0 0 0 0 0 0 0 0 0 0 127 0" result="hardAlpha"/>
<feOffset dx="-30" dy="30"/>
<feGaussianBlur stdDeviation="2"/>
<feComposite in2="hardAlpha" operator="out"/>
<feColorMatrix type="matrix" values="0 0 0 0 0 0 0 0 0 0 0 0 0 0 0 0 0 0 1 0"/>
<feBlend mode="normal" in2="BackgroundImageFix" result="effect1_dropShadow_58_411"/>
<feBlend mode="normal" in="SourceGraphic" in2="effect1_dropShadow_58_411" result="shape"/>
</filter>
<filter id="filter1_d_58_411" x="0" y="19.1758" width="232.094" height="232.886" filterUnits="userSpaceOnUse" color-interpolation-filters="sRGB">
<feFlood flood-opacity="0" result="BackgroundImageFix"/>
<feColorMatrix in="SourceAlpha" type="matrix" values="0 0 0 0 0 0 0 0 0 0 0 0 0 0 0 0 0 0 127 0" result="hardAlpha"/>
<feOffset dx="-20" dy="20"/>
<feGaussianBlur stdDeviation="2"/>
<feComposite in2="hardAlpha" operator="out"/>
<feColorMatrix type="matrix" values="0 0 0 0 0.572491 0 0 0 0 0.0399415 0 0 0 0 0.412726 0 0 0 1 0"/>
<feBlend mode="normal" in2="BackgroundImageFix" result="effect1_dropShadow_58_411"/>
<feBlend mode="normal" in="SourceGraphic" in2="effect1_dropShadow_58_411" result="shape"/>
</filter>
</defs>
</svg>
