<svg width="850" height="258" viewBox="0 0 850 258" fill="none" xmlns="http://www.w3.org/2000/svg">
<g filter="url(#filter0_d_58_411)">
<rect x="69.7451" y="30.2572" width="780.167" height="192.263" rx="50" transform="rotate(0.0828425 69.7451 30.2572)" fill="white"/>
<rect x="70.2444" y="30.7579" width="779.167" height="191.263" rx="49.5" transform="rotate(0.0828425 70.2444 30.7579)" stroke="black"/>
</g>
<g filter="url(#filter1_d_58_411)">
<ellipse cx="128.047" cy="123.619" rx="104.011" ry="104.439" transform="rotate(11.1762 128.047 123.619)" fill="#EE00A7"/>
</g>
<path d="M124.03 179.847C118.483 179.834 112.885 179.234 107.234 178.047C101.69 176.968 96.5738 175.409 91.8852 173.371L97.2229 148.904C105.855 152.444 113.69 154.222 120.73 154.239C129.477 154.26 133.858 150.963 133.874 144.35C133.884 140.083 131.651 137.038 127.175 135.214C122.7 133.284 115.235 132.306 104.782 132.281L104.834 110.362C123.82 110.406 133.322 106.642 133.34 99.0686C133.346 96.7219 132.23 94.906 129.993 93.6207C127.863 92.229 124.878 91.5287 121.038 91.5196C112.078 91.4985 104.02 93.3462 96.865 97.0627L90.6781 74.4881C101.145 68.5394 112.939 65.5805 126.059 65.6114C136.832 65.6367 145.307 68.11 151.482 73.0313C157.657 77.8458 160.735 84.4664 160.715 92.893C160.702 98.2264 159.357 103.183 156.68 107.764C154.109 112.238 150.42 116.016 145.613 119.098C152.541 121.567 157.545 125.259 160.627 130.173C163.816 134.98 165.404 139.944 165.392 145.064C165.375 152.211 163.654 158.393 160.228 163.612C156.803 168.831 151.993 172.873 145.8 175.738C139.607 178.497 132.35 179.867 124.03 179.847Z" fill="white"/>
<defs>
<filter id="filter0_d_58_411" x="35.5396" y="30.3295" width="814.3" height="227.246" filterUnits="userSpaceOnUse" color-interpolation-filters="sRGB">
<feFlood flood-opacity="0" result="BackgroundImageFix"/>
<feColorMatrix in="SourceAlpha" type="matrix" values="0 0 0 0 0 0 0 0 0 0 0 0 0 0 0 0 0 0 127 0" result="hardAlpha"/>
<feOffset dx="-30" dy="30"/>
<feGaussianBlur stdDeviation="2"/>
<feComposite in2="hardAlpha" operator="out"/>
<feColorMatrix type="matrix" values="0 0 0 0 0 0 0 0 0 0 0 0 0 0 0 0 0 0 1 0"/>
<feBlend mode="normal" in2="BackgroundImageFix" result="effect1_dropShadow_58_411"/>
<feBlend mode="normal" in="SourceGraphic" in2="effect1_dropShadow_58_411" result="shape"/>
</filter>
<filter id="filter1_d_58_411" x="0" y="19.1758" width="232.094" height="232.886" filterUnits="userSpaceOnUse" color-interpolation-filters="sRGB">
<feFlood flood-opacity="0" result="BackgroundImageFix"/>
<feColorMatrix in="SourceAlpha" type="matrix" values="0 0 0 0 0 0 0 0 0 0 0 0 0 0 0 0 0 0 127 0" result="hardAlpha"/>
<feOffset dx="-20" dy="20"/>
<feGaussianBlur stdDeviation="2"/>
<feComposite in2="hardAlpha" operator="out"/>
<feColorMatrix type="matrix" values="0 0 0 0 0.572491 0 0 0 0 0.0399415 0 0 0 0 0.412726 0 0 0 1 0"/>
<feBlend mode="normal" in2="BackgroundImageFix" result="effect1_dropShadow_58_411"/>
<feBlend mode="normal" in="SourceGraphic" in2="effect1_dropShadow_58_411" result="shape"/>
</filter>
</defs>
</svg>
