<svg width="850" height="258" viewBox="0 0 850 258" fill="none" xmlns="http://www.w3.org/2000/svg">
<g filter="url(#filter0_d_58_411)">
<rect x="69.7451" y="30.2572" width="780.167" height="192.263" rx="50" transform="rotate(0.0828425 69.7451 30.2572)" fill="white"/>
<rect x="70.2444" y="30.7579" width="779.167" height="191.263" rx="49.5" transform="rotate(0.0828425 70.2444 30.7579)" stroke="black"/>
</g>
<g filter="url(#filter1_d_58_411)">
<ellipse cx="128.047" cy="123.619" rx="104.011" ry="104.439" transform="rotate(11.1762 128.047 123.619)" fill="#EE00A7"/>
</g>
<path d="M94.5943 178.018L94.6493 154.658L108.089 154.689L108.22 99.3295L94.7797 99.2978L94.829 78.3379C99.4157 78.3487 104.431 77.5071 109.875 75.8133C115.319 74.1194 120.659 71.5187 125.893 68.011L142.693 68.0505L142.489 154.77L155.929 154.802L155.874 178.162L94.5943 178.018Z" fill="white"/>
<defs>
<filter id="filter0_d_58_411" x="35.5396" y="30.3295" width="814.3" height="227.246" filterUnits="userSpaceOnUse" color-interpolation-filters="sRGB">
<feFlood flood-opacity="0" result="BackgroundImageFix"/>
<feColorMatrix in="SourceAlpha" type="matrix" values="0 0 0 0 0 0 0 0 0 0 0 0 0 0 0 0 0 0 127 0" result="hardAlpha"/>
<feOffset dx="-30" dy="30"/>
<feGaussianBlur stdDeviation="2"/>
<feComposite in2="hardAlpha" operator="out"/>
<feColorMatrix type="matrix" values="0 0 0 0 0 0 0 0 0 0 0 0 0 0 0 0 0 0 1 0"/>
<feBlend mode="normal" in2="BackgroundImageFix" result="effect1_dropShadow_58_411"/>
<feBlend mode="normal" in="SourceGraphic" in2="effect1_dropShadow_58_411" result="shape"/>
</filter>
<filter id="filter1_d_58_411" x="0" y="19.1758" width="232.094" height="232.886" filterUnits="userSpaceOnUse" color-interpolation-filters="sRGB">
<feFlood flood-opacity="0" result="BackgroundImageFix"/>
<feColorMatrix in="SourceAlpha" type="matrix" values="0 0 0 0 0 0 0 0 0 0 0 0 0 0 0 0 0 0 127 0" result="hardAlpha"/>
<feOffset dx="-20" dy="20"/>
<feGaussianBlur stdDeviation="2"/>
<feComposite in2="hardAlpha" operator="out"/>
<feColorMatrix type="matrix" values="0 0 0 0 0.572491 0 0 0 0 0.0399415 0 0 0 0 0.412726 0 0 0 1 0"/>
<feBlend mode="normal" in2="BackgroundImageFix" result="effect1_dropShadow_58_411"/>
<feBlend mode="normal" in="SourceGraphic" in2="effect1_dropShadow_58_411" result="shape"/>
</filter>
</defs>
</svg>
