<svg width="714" height="258" viewBox="0 0 714 258" fill="none" xmlns="http://www.w3.org/2000/svg">
<g filter="url(#filter0_d_67_412)">
<rect width="646.586" height="192.263" rx="50" transform="matrix(0.999998 0.00174458 -0.00119831 0.999999 67.1807 30.2563)" fill="white"/>
<rect x="0.4994" y="0.500872" width="645.586" height="191.263" rx="49.5" transform="matrix(0.999998 0.00174458 -0.00119831 0.999999 67.1813 30.2555)" stroke="black"/>
</g>
<g filter="url(#filter1_d_67_412)">
<ellipse cx="128.047" cy="123.618" rx="104.011" ry="104.439" transform="rotate(11.1762 128.047 123.618)" fill="#EE00A7"/>
</g>
<path d="M115.697 178.114L115.758 152.194L71.4378 152.09L71.4935 128.41L114.196 68.0306L150.036 68.115L149.893 128.915L165.253 128.951L165.198 152.311L149.838 152.275L149.777 178.195L115.697 178.114ZM95.0127 128.786L115.813 128.835L115.892 95.2346L95.0127 128.786Z" fill="white"/>
<defs>
<filter id="filter0_d_67_412" x="33.0103" y="30.3435" width="680.695" height="227.217" filterUnits="userSpaceOnUse" color-interpolation-filters="sRGB">
<feFlood flood-opacity="0" result="BackgroundImageFix"/>
<feColorMatrix in="SourceAlpha" type="matrix" values="0 0 0 0 0 0 0 0 0 0 0 0 0 0 0 0 0 0 127 0" result="hardAlpha"/>
<feOffset dx="-30" dy="30"/>
<feGaussianBlur stdDeviation="2"/>
<feComposite in2="hardAlpha" operator="out"/>
<feColorMatrix type="matrix" values="0 0 0 0 0 0 0 0 0 0 0 0 0 0 0 0 0 0 1 0"/>
<feBlend mode="normal" in2="BackgroundImageFix" result="effect1_dropShadow_67_412"/>
<feBlend mode="normal" in="SourceGraphic" in2="effect1_dropShadow_67_412" result="shape"/>
</filter>
<filter id="filter1_d_67_412" x="0" y="19.175" width="232.094" height="232.886" filterUnits="userSpaceOnUse" color-interpolation-filters="sRGB">
<feFlood flood-opacity="0" result="BackgroundImageFix"/>
<feColorMatrix in="SourceAlpha" type="matrix" values="0 0 0 0 0 0 0 0 0 0 0 0 0 0 0 0 0 0 127 0" result="hardAlpha"/>
<feOffset dx="-20" dy="20"/>
<feGaussianBlur stdDeviation="2"/>
<feComposite in2="hardAlpha" operator="out"/>
<feColorMatrix type="matrix" values="0 0 0 0 0.572491 0 0 0 0 0.0399415 0 0 0 0 0.412726 0 0 0 1 0"/>
<feBlend mode="normal" in2="BackgroundImageFix" result="effect1_dropShadow_67_412"/>
<feBlend mode="normal" in="SourceGraphic" in2="effect1_dropShadow_67_412" result="shape"/>
</filter>
</defs>
</svg>
