<svg width="714" height="258" viewBox="0 0 714 258" fill="none" xmlns="http://www.w3.org/2000/svg">
<g filter="url(#filter0_d_67_412)">
<rect width="646.586" height="192.263" rx="50" transform="matrix(0.999998 0.00174458 -0.00119831 0.999999 67.1807 30.2571)" fill="white"/>
<rect x="0.4994" y="0.500872" width="645.586" height="191.263" rx="49.5" transform="matrix(0.999998 0.00174458 -0.00119831 0.999999 67.1813 30.2562)" stroke="black"/>
</g>
<g filter="url(#filter1_d_67_412)">
<ellipse cx="128.047" cy="123.619" rx="104.011" ry="104.439" transform="rotate(11.1762 128.047 123.619)" fill="#EE00A7"/>
</g>
<path d="M93.4748 178.015L93.5279 155.455C105.501 144.177 114.858 134.332 121.598 125.921C128.338 117.404 131.714 110.318 131.728 104.665C131.736 100.932 130.676 98.1557 128.547 96.3373C126.418 94.4123 123.647 93.4458 120.234 93.4377C113.087 93.4209 106.202 95.5914 99.5787 99.9491L91.7975 74.9707C96.7114 71.8889 102.104 69.555 107.974 67.9688C113.951 66.3829 119.82 65.5967 125.58 65.6102C134.326 65.6308 141.523 67.1945 147.169 70.3011C152.815 73.4077 157.018 77.631 159.779 82.9708C162.646 88.3109 164.072 94.3943 164.056 101.221C164.031 111.568 160.702 121.106 154.068 129.838C147.541 138.569 137.762 146.866 124.73 154.728L163.29 154.819L163.235 178.179L93.4748 178.015Z" fill="white"/>
<defs>
<filter id="filter0_d_67_412" x="33.0103" y="30.3442" width="680.695" height="227.217" filterUnits="userSpaceOnUse" color-interpolation-filters="sRGB">
<feFlood flood-opacity="0" result="BackgroundImageFix"/>
<feColorMatrix in="SourceAlpha" type="matrix" values="0 0 0 0 0 0 0 0 0 0 0 0 0 0 0 0 0 0 127 0" result="hardAlpha"/>
<feOffset dx="-30" dy="30"/>
<feGaussianBlur stdDeviation="2"/>
<feComposite in2="hardAlpha" operator="out"/>
<feColorMatrix type="matrix" values="0 0 0 0 0 0 0 0 0 0 0 0 0 0 0 0 0 0 1 0"/>
<feBlend mode="normal" in2="BackgroundImageFix" result="effect1_dropShadow_67_412"/>
<feBlend mode="normal" in="SourceGraphic" in2="effect1_dropShadow_67_412" result="shape"/>
</filter>
<filter id="filter1_d_67_412" x="0" y="19.1758" width="232.094" height="232.886" filterUnits="userSpaceOnUse" color-interpolation-filters="sRGB">
<feFlood flood-opacity="0" result="BackgroundImageFix"/>
<feColorMatrix in="SourceAlpha" type="matrix" values="0 0 0 0 0 0 0 0 0 0 0 0 0 0 0 0 0 0 127 0" result="hardAlpha"/>
<feOffset dx="-20" dy="20"/>
<feGaussianBlur stdDeviation="2"/>
<feComposite in2="hardAlpha" operator="out"/>
<feColorMatrix type="matrix" values="0 0 0 0 0.572491 0 0 0 0 0.0399415 0 0 0 0 0.412726 0 0 0 1 0"/>
<feBlend mode="normal" in2="BackgroundImageFix" result="effect1_dropShadow_67_412"/>
<feBlend mode="normal" in="SourceGraphic" in2="effect1_dropShadow_67_412" result="shape"/>
</filter>
</defs>
</svg>
