<svg width="714" height="258" viewBox="0 0 714 258" fill="none" xmlns="http://www.w3.org/2000/svg">
<g filter="url(#filter0_d_67_412)">
<rect width="646.586" height="192.263" rx="50" transform="matrix(0.999998 0.00174458 -0.00119831 0.999999 67.1807 30.2571)" fill="white"/>
<rect x="0.4994" y="0.500872" width="645.586" height="191.263" rx="49.5" transform="matrix(0.999998 0.00174458 -0.00119831 0.999999 67.1813 30.2562)" stroke="black"/>
</g>
<g filter="url(#filter1_d_67_412)">
<ellipse cx="128.047" cy="123.619" rx="104.011" ry="104.439" transform="rotate(11.1762 128.047 123.619)" fill="#EE00A7"/>
</g>
<path d="M94.5948 178.018L94.6498 154.658L108.09 154.689L108.22 99.3295L94.7802 99.2978L94.8295 78.3379C99.4162 78.3487 104.432 77.5071 109.876 75.8133C115.32 74.1194 120.659 71.5187 125.894 68.011L142.694 68.0505L142.49 154.77L155.93 154.802L155.875 178.162L94.5948 178.018Z" fill="white"/>
<defs>
<filter id="filter0_d_67_412" x="33.0103" y="30.3442" width="680.695" height="227.217" filterUnits="userSpaceOnUse" color-interpolation-filters="sRGB">
<feFlood flood-opacity="0" result="BackgroundImageFix"/>
<feColorMatrix in="SourceAlpha" type="matrix" values="0 0 0 0 0 0 0 0 0 0 0 0 0 0 0 0 0 0 127 0" result="hardAlpha"/>
<feOffset dx="-30" dy="30"/>
<feGaussianBlur stdDeviation="2"/>
<feComposite in2="hardAlpha" operator="out"/>
<feColorMatrix type="matrix" values="0 0 0 0 0 0 0 0 0 0 0 0 0 0 0 0 0 0 1 0"/>
<feBlend mode="normal" in2="BackgroundImageFix" result="effect1_dropShadow_67_412"/>
<feBlend mode="normal" in="SourceGraphic" in2="effect1_dropShadow_67_412" result="shape"/>
</filter>
<filter id="filter1_d_67_412" x="0" y="19.1758" width="232.094" height="232.886" filterUnits="userSpaceOnUse" color-interpolation-filters="sRGB">
<feFlood flood-opacity="0" result="BackgroundImageFix"/>
<feColorMatrix in="SourceAlpha" type="matrix" values="0 0 0 0 0 0 0 0 0 0 0 0 0 0 0 0 0 0 127 0" result="hardAlpha"/>
<feOffset dx="-20" dy="20"/>
<feGaussianBlur stdDeviation="2"/>
<feComposite in2="hardAlpha" operator="out"/>
<feColorMatrix type="matrix" values="0 0 0 0 0.572491 0 0 0 0 0.0399415 0 0 0 0 0.412726 0 0 0 1 0"/>
<feBlend mode="normal" in2="BackgroundImageFix" result="effect1_dropShadow_67_412"/>
<feBlend mode="normal" in="SourceGraphic" in2="effect1_dropShadow_67_412" result="shape"/>
</filter>
</defs>
</svg>
