<svg width="714" height="258" viewBox="0 0 714 258" fill="none" xmlns="http://www.w3.org/2000/svg">
<g filter="url(#filter0_d_67_412)">
<rect width="646.586" height="192.263" rx="50" transform="matrix(0.999998 0.00174458 -0.00119831 0.999999 67.1807 30.2571)" fill="white"/>
<rect x="0.4994" y="0.500872" width="645.586" height="191.263" rx="49.5" transform="matrix(0.999998 0.00174458 -0.00119831 0.999999 67.1813 30.2562)" stroke="black"/>
</g>
<g filter="url(#filter1_d_67_412)">
<ellipse cx="128.047" cy="123.619" rx="104.011" ry="104.439" transform="rotate(11.1762 128.047 123.619)" fill="#EE00A7"/>
</g>
<path d="M124.031 179.847C118.484 179.834 112.885 179.234 107.235 178.047C101.691 176.968 96.5743 175.409 91.8857 173.371L97.2234 148.904C105.855 152.444 113.691 154.222 120.731 154.239C129.478 154.26 133.859 150.963 133.874 144.35C133.884 140.083 131.651 137.038 127.176 135.214C122.7 133.284 115.236 132.306 104.783 132.281L104.834 110.362C123.821 110.406 133.323 106.642 133.341 99.0686C133.346 96.7219 132.231 94.906 129.994 93.6207C127.864 92.229 124.879 91.5287 121.039 91.5196C112.079 91.4985 104.021 93.3462 96.8654 97.0627L90.6786 74.4881C101.146 68.5394 112.94 65.5805 126.06 65.6114C136.833 65.6367 145.307 68.11 151.482 73.0313C157.658 77.8458 160.735 84.4664 160.715 92.893C160.703 98.2264 159.358 103.183 156.68 107.764C154.11 112.238 150.421 116.016 145.614 119.098C152.541 121.567 157.546 125.259 160.628 130.173C163.816 134.98 165.405 139.944 165.393 145.064C165.376 152.211 163.655 158.393 160.229 163.612C156.803 168.831 151.994 172.873 145.8 175.738C139.607 178.497 132.351 179.867 124.031 179.847Z" fill="white"/>
<defs>
<filter id="filter0_d_67_412" x="33.0103" y="30.3442" width="680.695" height="227.217" filterUnits="userSpaceOnUse" color-interpolation-filters="sRGB">
<feFlood flood-opacity="0" result="BackgroundImageFix"/>
<feColorMatrix in="SourceAlpha" type="matrix" values="0 0 0 0 0 0 0 0 0 0 0 0 0 0 0 0 0 0 127 0" result="hardAlpha"/>
<feOffset dx="-30" dy="30"/>
<feGaussianBlur stdDeviation="2"/>
<feComposite in2="hardAlpha" operator="out"/>
<feColorMatrix type="matrix" values="0 0 0 0 0 0 0 0 0 0 0 0 0 0 0 0 0 0 1 0"/>
<feBlend mode="normal" in2="BackgroundImageFix" result="effect1_dropShadow_67_412"/>
<feBlend mode="normal" in="SourceGraphic" in2="effect1_dropShadow_67_412" result="shape"/>
</filter>
<filter id="filter1_d_67_412" x="0" y="19.1758" width="232.094" height="232.886" filterUnits="userSpaceOnUse" color-interpolation-filters="sRGB">
<feFlood flood-opacity="0" result="BackgroundImageFix"/>
<feColorMatrix in="SourceAlpha" type="matrix" values="0 0 0 0 0 0 0 0 0 0 0 0 0 0 0 0 0 0 127 0" result="hardAlpha"/>
<feOffset dx="-20" dy="20"/>
<feGaussianBlur stdDeviation="2"/>
<feComposite in2="hardAlpha" operator="out"/>
<feColorMatrix type="matrix" values="0 0 0 0 0.572491 0 0 0 0 0.0399415 0 0 0 0 0.412726 0 0 0 1 0"/>
<feBlend mode="normal" in2="BackgroundImageFix" result="effect1_dropShadow_67_412"/>
<feBlend mode="normal" in="SourceGraphic" in2="effect1_dropShadow_67_412" result="shape"/>
</filter>
</defs>
</svg>
