<?xml version="1.0" encoding="UTF-8"?>
<svg version="1.1" xmlns="http://www.w3.org/2000/svg" width="1620" height="94">
<path d="M0 0 C534.6 0 1069.2 0 1620 0 C1620 31.02 1620 62.04 1620 94 C1085.4 94 550.8 94 0 94 C0 62.98 0 31.96 0 0 Z " fill="#8BA1F1" transform="translate(0,0)"/>
<path d="M0 0 C6.51774569 0.13813012 13.03574144 0.1504975 19.55472493 0.17655897 C30.48313726 0.23703318 41.40808604 0.37415367 52.33486104 0.57099867 C63.58175824 0.77339807 74.82771777 0.92888817 86.07607198 1.02217054 C87.11859615 1.03084042 87.11859615 1.03084042 88.18218141 1.03968544 C91.66938872 1.06839934 95.15660261 1.09620018 98.64382088 1.12354732 C127.50779837 1.35108 156.36660655 1.75633249 185.22768331 2.23066664 C185.22768331 33.25066664 185.22768331 64.27066664 185.22768331 96.23066664 C87.21768331 96.23066664 -10.79231669 96.23066664 -111.77231669 96.23066664 C-108.44419807 90.24005311 -105.19760288 84.77927315 -101.20981669 79.29316664 C-97.10861395 73.56485286 -93.0961975 67.79439064 -89.20981669 61.91816664 C-84.0128704 54.06937788 -78.74829956 46.26791574 -73.45981669 38.48066664 C-72.34346074 36.83611063 -71.22716697 35.19149322 -70.11890769 33.54147005 C-69.35948475 32.43601208 -68.57728773 31.34583005 -67.7723825 30.27303553 C-65.04978712 26.54921672 -63.3145473 23.12339658 -61.83438945 18.74754286 C-51.67603993 -6.58374107 -22.66969146 -0.56162972 0 0 Z " fill="#8BA1F1" transform="translate(1434.7723166942596,-2.2306666374206543)"/>
<path d="M0 0 C2.31700746 0.00508338 4.63404388 0.00221545 6.95103455 -0.00796509 C13.21508823 -0.01311287 19.47288909 0.09239599 25.73549366 0.21836615 C32.28946177 0.33119458 38.84358704 0.34148641 45.39837646 0.36282349 C56.39119375 0.40934668 67.38182987 0.52462629 78.37353516 0.68554688 C89.68950063 0.85104131 101.00484433 0.97831483 112.32177734 1.0546875 C113.36996426 1.06178103 113.36996426 1.06178103 114.43932667 1.06901787 C117.94533192 1.09251036 121.45134153 1.11525667 124.95735407 1.13763213 C153.99486192 1.32391386 183.03011521 1.64201073 212.06542969 2.04345703 C210.73988373 5.45773808 209.34509207 8.34612615 207.25683594 11.35986328 C206.68481445 12.19146973 206.11279297 13.02307617 205.5234375 13.87988281 C204.89791992 14.7794873 204.27240234 15.6790918 203.62792969 16.60595703 C202.25897329 18.5939169 200.89050689 20.58221426 199.52246094 22.57080078 C198.79623535 23.62380371 198.07000977 24.67680664 197.32177734 25.76171875 C193.85910116 30.79799804 190.43034741 35.85709359 187.00231934 40.91699219 C185.80957519 42.67709638 184.61587772 44.43655016 183.421875 46.19580078 C179.67785577 51.71267067 175.93690791 57.23158413 172.20346069 62.75561523 C170.50425539 65.26936048 168.80364098 67.78215085 167.10290527 70.29486084 C166.30198913 71.47899561 165.501749 72.66358797 164.70227051 73.84869385 C163.58159249 75.5098547 162.45830357 77.16925319 161.33496094 78.82861328 C160.70178955 79.76584229 160.06861816 80.70307129 159.41625977 81.66870117 C159.04535123 82.16793468 158.67444269 82.6671682 158.2922945 83.18153 C156.94573616 85.11308651 156.94573616 85.11308651 155.87618542 87.73537064 C153.96309809 91.35904705 152.30653809 93.49919606 149.06542969 96.04345703 C141.91045772 98.19905994 133.96498476 97.43014466 126.58496094 97.29223633 C124.26854094 97.28913212 121.95211012 97.29087791 119.63569641 97.29710388 C113.35649383 97.30025794 107.0796063 97.23562608 100.80094147 97.15879035 C94.23606633 97.08998811 87.67113707 97.08356142 81.10595703 97.07051086 C70.08992413 97.04204675 59.07470154 96.97152573 48.05908203 96.87329102 C36.71570053 96.77223892 25.37254965 96.69441777 14.02880859 96.64770508 C13.32896642 96.64481512 12.62912425 96.64192516 11.90807474 96.63894763 C8.39698451 96.62459166 4.88589267 96.61069101 1.37479973 96.59701669 C-27.72887482 96.48308089 -56.83171121 96.28860283 -85.93457031 96.04345703 C-84.80996899 94.27430706 -83.68511996 92.50531455 -82.56016541 90.73638916 C-81.93379149 89.75126469 -81.30741758 88.76614021 -80.66206264 87.75116348 C-77.66781598 83.05792066 -74.58572311 78.42488648 -71.49707031 73.79345703 C-70.80967773 72.7620459 -70.12228516 71.73063477 -69.4140625 70.66796875 C-63.92953459 62.468612 -58.31800982 54.36328758 -52.66430664 46.2800293 C-48.60712846 40.47169516 -44.60370423 34.63334371 -40.68457031 28.73095703 C-40.27326583 28.13267432 -39.86196134 27.53439161 -39.43819308 26.91797912 C-36.8808486 23.15051768 -34.5648637 19.41789782 -32.55434036 15.32940865 C-24.65292138 0.14087475 -16.18842388 -0.49840031 0 0 Z " fill="#8BA1F1" transform="translate(845.9345703125,-2.04345703125)"/>
<path d="M0 0 C3.88839676 0.1197304 7.77714517 0.13000702 11.66710067 0.15248275 C19.01455022 0.21127283 26.3565538 0.36677727 33.7016167 0.55812305 C42.0709971 0.77136427 50.44065424 0.87516949 58.81207979 0.97033632 C76.01512613 1.16832578 93.21288834 1.50195157 110.41180587 1.92648482 C109.61820018 3.36786394 108.82302005 4.80837626 108.02717757 6.24852157 C107.58453094 7.05079964 107.14188432 7.85307771 106.68582416 8.67966723 C105.20435875 11.29233188 103.58068569 13.75295553 101.84539962 16.20382857 C101.2017546 17.11930465 100.55810958 18.03478072 99.89496017 18.9779985 C99.21989425 19.93037398 98.54482833 20.88274947 97.84930587 21.86398482 C93.02525359 28.73341342 88.22932985 35.61206287 83.59930587 42.61398482 C78.40337251 50.46337364 73.13588402 58.26300934 67.84930587 66.05148482 C67.46165053 66.62305312 67.0739952 67.19462142 66.67459273 67.78350997 C66.29485305 68.34333571 65.91511336 68.90316146 65.52386642 69.47995162 C65.16769524 70.00822649 64.81152406 70.53650136 64.44455981 71.08078456 C63.29154845 72.76770272 62.10227417 74.42967047 60.91084456 76.08967757 C59.13203144 78.66849602 57.83287902 81.16326488 56.65039229 84.06048751 C54.42558409 88.94957906 51.97068438 92.92955814 47.41180587 95.92648482 C38.04663689 98.71846177 27.70905011 97.8415014 18.02639961 97.54878783 C14.13246082 97.44814473 10.23828679 97.43932145 6.34324813 97.42038131 C-1.01766652 97.37082488 -8.37473814 97.23979202 -15.73396689 97.07878947 C-24.11803923 96.89938386 -32.50230416 96.81184195 -40.88782084 96.73166251 C-58.12349464 96.56482045 -75.35543701 96.2837616 -92.58819413 95.92648482 C-91.79061004 94.47945244 -90.9916437 93.03318186 -90.19209123 91.58723617 C-89.52492632 90.37902662 -89.52492632 90.37902662 -88.84428334 89.1464088 C-87.49930017 86.76937988 -86.04869875 84.52612112 -84.45928788 82.30539107 C-83.90603837 81.52550826 -83.35278886 80.74562545 -82.78277421 79.94210982 C-82.20293778 79.13257857 -81.62310136 78.32304732 -81.02569413 77.48898482 C-76.56518203 71.18878049 -72.15880909 64.86536615 -67.90069413 58.42648482 C-62.7042447 50.57740226 -57.43821148 42.77685642 -52.15069413 34.98898482 C-51.77176011 34.4304985 -51.39282609 33.87201217 -51.00240922 33.29660201 C-50.44509614 32.47530807 -50.44509614 32.47530807 -49.87652421 31.63742232 C-49.52470802 31.11567994 -49.17289184 30.59393756 -48.81041455 30.0563848 C-48.03548455 28.92275756 -47.24789179 27.79760737 -46.4438374 26.684448 C-44.01887973 23.27779109 -42.08603468 19.93804476 -40.37707353 16.11792159 C-31.63852469 -1.74559407 -17.73571084 -0.63910917 0 0 Z " fill="#8BA1F1" transform="translate(1275.5881941318512,-1.9264848232269287)"/>
<path d="M0 0 C3.8966707 0.09426682 7.79354195 0.1026183 11.69117689 0.12038112 C19.05898108 0.16686419 26.42341607 0.28974432 33.7897414 0.44062346 C42.18111303 0.60873782 50.57265234 0.69086786 58.96529078 0.76605499 C76.21746678 0.92252452 93.46637022 1.18606826 110.71598768 1.52090907 C109.29884475 5.19772304 107.72594907 8.18747416 105.44255018 11.40762782 C104.4625807 12.80017787 104.4625807 12.80017787 103.46281385 14.22086024 C102.4125099 15.69969691 102.4125099 15.69969691 101.34098768 17.20840907 C99.86957576 19.30120365 98.39953426 21.39496239 96.93083143 23.48965907 C96.20750624 24.52090907 95.48418104 25.55215907 94.7389369 26.61465907 C92.07320672 30.44435399 89.4760527 34.31574228 86.90348768 38.20840907 C78.62049054 50.72185264 70.16030665 63.11603714 61.71598768 75.52090907 C60.67305555 77.05328212 60.67305555 77.05328212 59.60905409 78.6166122 C57.77135182 81.31501047 55.93176813 84.01210999 54.09098768 86.70840907 C53.55288465 87.49787929 53.01478163 88.2873495 52.46037245 89.10074306 C48.8337266 94.40317015 48.8337266 94.40317015 47.71598768 95.52090907 C45.90637897 95.61732404 44.0929664 95.64278305 42.28079176 95.64116359 C41.10143553 95.64253825 39.9220793 95.64391292 38.706985 95.64532924 C37.40147688 95.64173396 36.09596876 95.63813869 34.75089979 95.63443446 C33.37145951 95.63415259 31.99201907 95.63431032 30.61257887 95.63487697 C26.8565465 95.63516495 23.10054579 95.62926812 19.34452081 95.62230301 C15.42338723 95.61606958 11.50225301 95.61546568 7.58111525 95.6142776 C0.15087158 95.61116425 -7.27935746 95.60295082 -14.70959467 95.59292811 C-23.1665287 95.58176708 -31.62346341 95.57625655 -40.08040297 95.57123268 C-57.48161457 95.56076821 -74.8828119 95.5431687 -92.28401232 95.52090907 C-91.16186064 93.75494998 -90.03937537 91.98920285 -88.91674852 90.22354579 C-88.29170018 89.24022273 -87.66665184 88.25689967 -87.02266264 87.24377894 C-81.41376903 78.45978872 -75.50355227 69.86779822 -69.64579821 61.24878383 C-68.43102654 59.46133724 -67.21694278 57.67342502 -66.00300646 55.88541102 C-62.57496705 50.83658259 -59.14553 45.78870409 -55.71565294 40.74112391 C-53.61803753 37.65414123 -51.52101752 34.56675473 -49.42430162 31.47916102 C-48.26826384 29.77723688 -47.11148623 28.07581746 -45.95466661 26.3744247 C-45.22674913 25.30256923 -44.49883165 24.23071376 -43.74885607 23.12637782 C-43.03480608 22.1307986 -42.32075609 21.13521937 -41.58506823 20.10947108 C-39.92762147 17.68756283 -38.78757809 15.39496587 -37.77148485 12.64609218 C-31.08367527 -3.34479551 -14.74488713 -0.41710129 0 0 Z " fill="#8BA1F1" transform="translate(712.2840123176575,-1.520909070968628)"/>
<path d="M0 0 C0.85829123 0.00359811 1.71658247 0.00719622 2.60088253 0.01090336 C3.51292415 0.01078282 4.42496576 0.01066229 5.364645 0.0105381 C8.33135469 0.01128742 11.29800237 0.01891652 14.26470089 0.0267725 C16.09050625 0.02824186 17.91631202 0.02926261 19.74211788 0.02982426 C26.52959987 0.03507784 33.31707286 0.04903891 40.10454464 0.06192875 C55.26391964 0.08255375 70.42329464 0.10317875 86.04204464 0.12442875 C86.04204464 31.14442875 86.04204464 62.16442875 86.04204464 94.12442875 C34.89204464 94.12442875 -16.25795536 94.12442875 -68.95795536 94.12442875 C-67.45935018 90.37791579 -66.3767883 88.03980467 -64.12201786 84.89396 C-63.55910038 84.10118656 -62.9961829 83.30841312 -62.41620731 82.49161625 C-61.5087476 81.22704594 -61.5087476 81.22704594 -60.58295536 79.93692875 C-56.05854486 73.55414421 -51.58444695 67.15146676 -47.27045536 60.62442875 C-39.33161644 48.63258219 -31.22767477 36.75255149 -23.13916874 24.86142826 C-21.9771939 23.15271943 -20.815846 21.4435864 -19.6547327 19.73429203 C-17.54866919 16.63435584 -15.44110913 13.53544368 -13.33295536 10.43692875 C-12.69962284 9.5046143 -12.06629032 8.57229984 -11.41376591 7.61173344 C-10.8379578 6.7664307 -10.2621497 5.92112797 -9.66889286 5.05021 C-9.16664188 4.31198002 -8.66439091 3.57375004 -8.1469202 2.81314945 C-5.80058563 -0.51941651 -4.00839668 0.0071351 0 0 Z " fill="#8BA1F1" transform="translate(1533.9579553604126,-0.12442874908447266)"/>
<path d="M0 0 C2.06277466 -0.36076355 2.06277466 -0.36076355 4.63330078 -0.34057617 C6.07456833 -0.34023628 6.07456833 -0.34023628 7.54495239 -0.33988953 C8.58457123 -0.32440567 9.62419006 -0.30892181 10.6953125 -0.29296875 C11.75789276 -0.28872391 12.82047302 -0.28447906 13.91525269 -0.28010559 C17.31875646 -0.26327389 20.72167433 -0.22561303 24.125 -0.1875 C26.42837688 -0.17245899 28.73176302 -0.15876958 31.03515625 -0.14648438 C36.69030505 -0.11335574 42.34511068 -0.06311197 48 0 C40.69892473 11.59045699 33.06102482 22.9435767 25.36178589 34.27212524 C24.14701422 36.05957183 22.93293046 37.84748405 21.71899414 39.63549805 C18.29095473 44.68432648 14.86151768 49.73220498 11.43164062 54.77978516 C9.33402521 57.86676784 7.2370052 60.95415434 5.14028931 64.04174805 C3.98425153 65.74367219 2.82747392 67.44509161 1.6706543 69.14648438 C0.94273682 70.21833984 0.21481934 71.29019531 -0.53515625 72.39453125 C-1.28120117 73.44970947 -2.02724609 74.5048877 -2.79589844 75.59204102 C-4.45057012 78.01594179 -5.70857181 80.4510755 -6.91503906 83.12475586 C-8.99002912 87.40335944 -11.00670374 91.25200856 -15 94 C-22.89911331 96.4248237 -31.49678306 95.40663986 -39.625 94.9375 C-41.89170651 94.86218068 -44.15865314 94.79375307 -46.42578125 94.73242188 C-51.9557958 94.56787345 -57.47677736 94.3176667 -63 94 C-60.53090082 89.59444659 -57.97084203 85.3501939 -55.12109375 81.17578125 C-54.75697891 80.64075485 -54.39286407 80.10572845 -54.01771545 79.55448914 C-52.82669219 77.80552231 -51.63208546 76.05903522 -50.4375 74.3125 C-49.5895674 73.0685477 -48.74191654 71.82440331 -47.89453125 70.58007812 C-46.13634109 67.99876847 -44.37694969 65.41828399 -42.61669922 62.83837891 C-38.95722029 57.47291141 -35.31255609 52.09740788 -31.66772461 46.72198486 C-29.71795344 43.84675519 -27.76713883 40.97223369 -25.81640625 38.09765625 C-25.42796539 37.52521179 -25.03952454 36.95276733 -24.63931274 36.36297607 C-22.09360736 32.61138962 -19.54759558 28.86001121 -17.00143433 25.10873413 C-15.23819903 22.51092659 -13.47505299 19.91305849 -11.71191406 17.31518555 C-10.86902262 16.07329319 -10.02608714 14.83143072 -9.18310547 13.58959961 C-8.01649108 11.87100595 -6.85002657 10.15231065 -5.68359375 8.43359375 C-5.01900146 7.45447021 -4.35440918 6.47534668 -3.66967773 5.46655273 C-2.43940601 3.64911813 -1.21739154 1.82608732 0 0 Z " fill="#8BA1F1" transform="translate(1480,0)"/>
<path d="M0 0 C0.83272934 0.00222061 1.66545868 0.00444122 2.52342224 0.00672913 C3.46432205 0.00680466 4.40522186 0.00688019 5.37463379 0.00695801 C6.39754013 0.01211929 7.42044647 0.01728058 8.47434998 0.02259827 C9.51614914 0.02401321 10.5579483 0.02542816 11.63131714 0.02688599 C14.97355467 0.03250372 18.31572629 0.04505922 21.65794373 0.05775452 C23.91770839 0.06276723 26.17747409 0.06733053 28.4372406 0.07142639 C33.98999763 0.08247891 39.54271597 0.09923428 45.09544373 0.12025452 C43.83253639 3.55183982 42.3876019 6.38161461 40.25950623 9.35072327 C39.69658875 10.1434967 39.13367126 10.93627014 38.55369568 11.75306702 C37.94872253 12.59611389 37.34374939 13.43916077 36.72044373 14.30775452 C32.19603323 20.69053906 27.72193531 27.09321651 23.40794373 33.62025452 C15.46910481 45.61210108 7.36516313 57.49213178 -0.7233429 69.383255 C-1.88531774 71.09196384 -3.04666563 72.80109687 -4.20777893 74.51039124 C-6.31384245 77.61032742 -8.4214025 80.70923958 -10.52955627 83.80775452 C-11.16288879 84.74006897 -11.79622131 85.67238342 -12.44874573 86.63294983 C-13.02455383 87.47825256 -13.60036194 88.3235553 -14.19361877 89.19447327 C-14.69586975 89.93270325 -15.19812073 90.67093323 -15.71559143 91.43153381 C-16.90455627 93.12025452 -16.90455627 93.12025452 -17.90455627 94.12025452 C-19.37809975 94.2132947 -20.85606218 94.23771717 -22.33253479 94.23377991 C-23.2734346 94.23370438 -24.21433441 94.23362885 -25.18374634 94.23355103 C-26.20665268 94.22838974 -27.22955902 94.22322845 -28.28346252 94.21791077 C-29.32526169 94.21649582 -30.36706085 94.21508087 -31.44042969 94.21362305 C-34.78266721 94.20800531 -38.12483884 94.19544982 -41.46705627 94.18275452 C-43.72682094 94.1777418 -45.98658664 94.1731785 -48.24635315 94.16908264 C-53.79911018 94.15803013 -59.35182852 94.14127476 -64.90455627 94.12025452 C-63.62877404 90.64534647 -62.14991416 87.79183181 -59.99830627 84.78431702 C-59.1384613 83.57195374 -59.1384613 83.57195374 -58.26124573 82.33509827 C-57.34218445 81.05312561 -57.34218445 81.05312561 -56.40455627 79.74525452 C-55.11553076 77.92583766 -53.8277757 76.10552005 -52.54127502 74.28431702 C-51.59840637 72.95062073 -51.59840637 72.95062073 -50.63648987 71.58998108 C-48.04759978 67.89823987 -45.55691336 64.14759098 -43.07081604 60.38587952 C-36.68796623 50.74796532 -30.15872992 41.20755287 -23.66033936 31.64733887 C-21.15665945 27.96391227 -18.65510367 24.27905666 -16.15560913 20.5927887 C-14.57404354 18.26050353 -12.99159691 15.92881703 -11.40898132 13.59724426 C-10.29607359 11.95709691 -9.18416961 10.31626863 -8.07228088 8.6754303 C-7.40591614 7.6942926 -6.73955139 6.71315491 -6.05299377 5.70228577 C-5.46695374 4.83837219 -4.8809137 3.97445862 -4.27711487 3.08436584 C-2.2196398 0.14014903 -2.2196398 0.14014903 0 0 Z " fill="#8BA1F1" transform="translate(637.9045562744141,-0.1202545166015625)"/>
<path d="M0 0 C0.83050873 0.00444122 1.66101746 0.00888245 2.51669312 0.01345825 C3.92792953 0.01368484 3.92792953 0.01368484 5.36767578 0.01391602 C6.38542084 0.02423859 7.40316589 0.03456116 8.45175171 0.04519653 C9.49213593 0.04802643 10.53252014 0.05085632 11.60443115 0.05377197 C14.93646615 0.064992 18.26823507 0.09009989 21.60018921 0.11550903 C23.85539367 0.12553648 26.11060233 0.13466273 28.36581421 0.14285278 C33.90236375 0.16493725 39.43875748 0.19843265 44.97518921 0.24050903 C39.81858744 9.70868927 39.81858744 9.70868927 36.84628296 13.86160278 C36.29303345 14.6414856 35.73978394 15.42136841 35.16976929 16.22488403 C34.30001465 17.43918091 34.30001465 17.43918091 33.41268921 18.67800903 C28.95217711 24.97821337 24.54580417 31.3016277 20.28768921 37.74050903 C15.09123977 45.5895916 9.82520655 53.39013744 4.53768921 61.17800903 C4.15875519 61.73649536 3.77982117 62.29498169 3.3894043 62.87039185 C3.01786224 63.41792114 2.64632019 63.96545044 2.26351929 64.52957153 C1.89001343 65.08249374 1.51650757 65.63541595 1.13168335 66.20509338 C0.35740069 67.33889225 -0.42790808 68.46523249 -1.22354126 69.58415222 C-3.6617454 73.04806517 -5.72186375 76.53127745 -7.64517212 80.30862427 C-14.44471386 92.91759827 -14.44471386 92.91759827 -20.66009521 95.21429443 C-28.0431144 96.58685497 -35.39672847 95.97833341 -42.83731079 95.42800903 C-45.09020769 95.33255142 -47.34349519 95.24588547 -49.59707642 95.16824341 C-55.08160537 94.96029223 -60.55136687 94.64390056 -66.02481079 94.24050903 C-61.25955786 86.65362747 -56.33368072 79.1967882 -51.27481079 71.80300903 C-50.15411677 70.15997436 -49.03342897 68.51693541 -47.9130249 66.873703 C-47.13497104 65.73272427 -46.35670984 64.59188691 -45.57824707 63.45118713 C-41.65181156 57.69734791 -37.74013827 51.93353617 -33.83032227 46.168396 C-32.65117988 44.43002743 -31.47149536 42.69202799 -30.29165649 40.95413208 C-26.52807562 35.40969407 -22.76803459 29.86291893 -19.0171814 24.30986023 C-17.25747547 21.70506435 -15.4961639 19.10135622 -13.73471069 16.4977417 C-12.89181983 15.25087213 -12.04972738 14.00346244 -11.20846558 12.75549316 C-10.04375485 11.02779905 -8.87637435 9.30193842 -7.70840454 7.57644653 C-7.04381226 6.59208618 -6.37921997 5.60772583 -5.69448853 4.59353638 C-2.65909786 0.31585028 -2.65909786 0.31585028 0 0 Z " fill="#8BA1F1" transform="translate(1201.0248107910156,-0.240509033203125)"/>
<path d="M0 0 C2.25749226 0.09041636 4.51533345 0.1725239 6.7734375 0.24609375 C12.27331202 0.4432579 17.76001705 0.74316594 23.25 1.125 C20.78090082 5.53055341 18.22084203 9.7748061 15.37109375 13.94921875 C15.00697891 14.48424515 14.64286407 15.01927155 14.26771545 15.57051086 C13.07669219 17.31947769 11.88208546 19.06596478 10.6875 20.8125 C9.8395674 22.0564523 8.99191654 23.30059669 8.14453125 24.54492188 C6.38634109 27.12623153 4.62694969 29.70671601 2.86669922 32.28662109 C-0.79277971 37.65208859 -4.43744391 43.02759212 -8.08227539 48.40301514 C-10.03204656 51.27824481 -11.98286117 54.15276631 -13.93359375 57.02734375 C-14.32203461 57.59978821 -14.71047546 58.17223267 -15.11068726 58.76202393 C-17.65639264 62.51361038 -20.20240442 66.26498879 -22.74856567 70.01626587 C-24.51180097 72.61407341 -26.27494701 75.21194151 -28.03808594 77.80981445 C-28.88097738 79.05170681 -29.72391286 80.29356928 -30.56689453 81.53540039 C-31.73350892 83.25399405 -32.89997343 84.97268935 -34.06640625 86.69140625 C-34.73099854 87.67052979 -35.39559082 88.64965332 -36.08032227 89.65844727 C-37.31059399 91.47588187 -38.53260846 93.29891268 -39.75 95.125 C-41.81277466 95.48576355 -41.81277466 95.48576355 -44.38330078 95.46557617 C-45.34414581 95.46534958 -46.30499084 95.46512299 -47.29495239 95.46488953 C-48.33457123 95.44940567 -49.37419006 95.43392181 -50.4453125 95.41796875 C-51.50789276 95.41372391 -52.57047302 95.40947906 -53.66525269 95.40510559 C-57.06875646 95.38827389 -60.47167433 95.35061303 -63.875 95.3125 C-66.17837688 95.29745899 -68.48176302 95.28376958 -70.78515625 95.27148438 C-76.44030505 95.23835574 -82.09511068 95.18811197 -87.75 95.125 C-83.02768574 87.6470188 -78.21950595 80.23304681 -73.3125 72.875 C-72.62510742 71.84358887 -71.93771484 70.81217773 -71.22949219 69.74951172 C-65.74496428 61.55015497 -60.1334395 53.44483055 -54.47973633 45.36157227 C-50.42255814 39.55323813 -46.41913392 33.71488668 -42.5 27.8125 C-42.07178955 27.19156967 -41.6435791 26.57063934 -41.20239258 25.93089294 C-38.64857151 22.17790554 -36.37996431 18.4833787 -34.43359375 14.37866211 C-26.37809839 -1.55150272 -16.59523043 -1.15831503 0 0 Z " fill="#8BA1F1" transform="translate(847.75,-1.125)"/>
<path d="M0 0 C2.01034147 0.00094833 4.02084099 0.03475846 6.03027344 0.09521484 C7.61989899 0.10794937 7.61989899 0.10794937 9.24163818 0.12094116 C12.62534387 0.15451944 16.00666353 0.22981192 19.38964844 0.30615234 C21.68388485 0.33624599 23.97815862 0.36362284 26.27246094 0.38818359 C31.8956704 0.45432496 37.51748899 0.55471826 43.13964844 0.68115234 C35.83857317 12.27160933 28.20067326 23.62472904 20.50143433 34.95327759 C19.28666266 36.74072417 18.0725789 38.5286364 16.85864258 40.31665039 C13.43060317 45.36547882 10.00116612 50.41335733 6.57128906 55.4609375 C4.47367365 58.54792018 2.37665364 61.63530669 0.27993774 64.72290039 C-0.87610004 66.42482453 -2.03287765 68.12624396 -3.18969727 69.82763672 C-3.91761475 70.89949219 -4.64553223 71.97134766 -5.39550781 73.07568359 C-6.14155273 74.13086182 -6.88759766 75.18604004 -7.65625 76.27319336 C-9.31092168 78.69709414 -10.56892338 81.13222785 -11.77539062 83.8059082 C-13.85038068 88.08451179 -15.8670553 91.9331609 -19.86035156 94.68115234 C-27.75946487 97.10597604 -36.35713462 96.08779221 -44.48535156 95.61865234 C-46.75205807 95.54333303 -49.0190047 95.47490542 -51.28613281 95.41357422 C-56.81614736 95.24902579 -62.33712892 94.99881904 -67.86035156 94.68115234 C-65.51683435 90.50987763 -63.12490369 86.46298836 -60.41894531 82.51318359 C-59.76297363 81.5524292 -59.10700195 80.5916748 -58.43115234 79.60180664 C-57.72716309 78.57611572 -57.02317383 77.5504248 -56.29785156 76.49365234 C-55.54477852 75.39205491 -54.79201894 74.29024312 -54.03955078 73.18823242 C-52.85722463 71.45682299 -51.67467414 69.72557061 -50.4911499 67.99497986 C-46.53394974 62.20858982 -42.59729763 56.4083512 -38.66339111 50.60610962 C-36.6892661 47.69452836 -34.71419407 44.78358961 -32.73925781 41.87255859 C-32.34414001 41.29009872 -31.94902222 40.70763885 -31.54193115 40.10752869 C-28.55400263 35.70301659 -25.56476916 31.29939153 -22.57519531 26.89599609 C-21.27681663 24.98338047 -19.97846088 23.07074928 -18.68011475 21.15811157 C-17.85178959 19.93798166 -17.02338179 18.71790784 -16.19488525 17.49789429 C-15.04278221 15.80132194 -13.89098909 14.10453958 -12.73925781 12.40771484 C-12.08513916 11.44430176 -11.43102051 10.48088867 -10.75708008 9.48828125 C-8.75816086 6.68528107 -8.75816086 6.68528107 -7.29858398 3.35986328 C-4.50217486 0.28764931 -3.96051391 0.2494543 0 0 Z " fill="#8BA1F1" transform="translate(452.8603515625,-0.68115234375)"/>
<path d="M0 0 C2.23232293 0.05018639 4.46475342 0.09580927 6.69726562 0.13671875 C12.15469739 0.24665948 17.60810165 0.41372105 23.0625 0.625 C21.79393118 4.05655942 20.33569329 6.93700521 18.25390625 9.94140625 C17.68188477 10.7730127 17.10986328 11.60461914 16.52050781 12.46142578 C15.89499023 13.36103027 15.26947266 14.26063477 14.625 15.1875 C13.2560436 17.17545987 11.8875772 19.16375723 10.51953125 21.15234375 C9.79330566 22.20534668 9.06708008 23.25834961 8.31884766 24.34326172 C4.85617147 29.37954101 1.42741772 34.43863656 -2.00061035 39.49853516 C-3.1933545 41.25863935 -4.38705197 43.01809313 -5.58105469 44.77734375 C-9.32507392 50.29421364 -13.06602178 55.8131271 -16.79946899 61.3371582 C-18.4986743 63.85090345 -20.19928871 66.36369382 -21.90002441 68.87640381 C-22.70094056 70.06053857 -23.50118068 71.24513094 -24.30065918 72.43023682 C-26.13960653 75.15607537 -27.99143917 77.86544636 -29.89599609 80.54614258 C-32.00726358 83.55869385 -32.00726358 83.55869385 -33.42041016 86.8503418 C-35.28003496 90.45636915 -36.57129126 92.3139252 -39.9375 94.625 C-47.74181075 96.44662387 -56.00165539 95.65314184 -63.9375 95.3125 C-66.16524434 95.25728407 -68.39311947 95.20710078 -70.62109375 95.16210938 C-76.06276193 95.04128048 -81.49952412 94.85760811 -86.9375 94.625 C-85.44397745 91.57908777 -83.79673958 88.7914329 -81.91015625 85.96875 C-81.29293701 85.04352539 -80.67571777 84.11830078 -80.03979492 83.16503906 C-79.3666626 82.16182617 -78.69353027 81.15861328 -78 80.125 C-77.29270752 79.06764648 -76.58541504 78.01029297 -75.85668945 76.92089844 C-68.49942202 65.93224691 -61.06852974 54.99336005 -53.63111877 44.05886841 C-50.66754652 39.70114364 -47.70959481 35.33963757 -44.75390625 30.9765625 C-43.89690605 29.71190405 -43.03989123 28.44725551 -42.18286133 27.18261719 C-40.95441844 25.36991597 -39.72615186 23.55709725 -38.49862671 21.74377441 C-36.65378967 19.01881332 -34.80021398 16.30616232 -32.89672852 13.62158203 C-30.87148563 10.72143262 -30.87148563 10.72143262 -29.67944336 7.62451172 C-24.4206874 -3.6239623 -10.52258716 -0.40901879 0 0 Z " fill="#8BA1F1" transform="translate(1034.9375,-0.625)"/>
<path d="M0 0 C2.21855357 0.07030171 4.437321 0.13416678 6.65625 0.19140625 C12.06720048 0.34494023 17.47010062 0.57844766 22.875 0.875 C17.70998078 10.33353048 17.70998078 10.33353048 14.7734375 14.58203125 C14.21108398 15.40074707 13.64873047 16.21946289 13.06933594 17.06298828 C12.46895508 17.92907715 11.86857422 18.79516602 11.25 19.6875 C9.9084277 21.63902981 8.56730345 23.59086769 7.2265625 25.54296875 C6.51918945 26.57083496 5.81181641 27.59870117 5.08300781 28.65771484 C1.64051031 33.67377323 -1.77294258 38.70944014 -5.18591309 43.74560547 C-6.37766242 45.50392817 -7.57007173 47.26180143 -8.76269531 49.01953125 C-12.53198842 54.57504773 -16.29942031 60.13182025 -20.06433105 65.69030762 C-21.79320301 68.24255865 -23.52272486 70.79436893 -25.25231934 73.34613037 C-26.07336806 74.55786205 -26.89409625 75.76981098 -27.71447754 76.98199463 C-28.85833757 78.6721291 -30.00328238 80.3615241 -31.1484375 82.05078125 C-32.12176025 83.48804565 -32.12176025 83.48804565 -33.11474609 84.9543457 C-33.77812988 85.91816162 -34.44151367 86.88197754 -35.125 87.875 C-35.44858994 88.50019028 -35.77217987 89.12538055 -36.10557556 89.76951599 C-37.28753675 91.8495654 -38.30243862 93.31675145 -40.125 94.875 C-43.72498663 95.83721234 -47.19068679 95.69210804 -50.89453125 95.55859375 C-51.93067062 95.54868912 -52.96681 95.53878448 -54.03434753 95.52857971 C-57.3368512 95.48946008 -60.63600483 95.40163869 -63.9375 95.3125 C-66.17898838 95.27738319 -68.42052898 95.24544484 -70.66210938 95.21679688 C-76.15087846 95.13970706 -81.63769993 95.02264358 -87.125 94.875 C-85.84347081 91.40010632 -84.35210531 88.49547455 -82.24609375 85.453125 C-81.66375977 84.6060498 -81.08142578 83.75897461 -80.48144531 82.88623047 C-79.53156738 81.51942139 -79.53156738 81.51942139 -78.5625 80.125 C-77.19111864 78.13301047 -75.82003597 76.14081529 -74.44921875 74.1484375 C-73.73556152 73.11428711 -73.0219043 72.08013672 -72.28662109 71.01464844 C-68.79383402 65.94154682 -65.33519071 60.84536407 -61.875 55.75 C-61.17745605 54.72447021 -60.47991211 53.69894043 -59.76123047 52.64233398 C-56.31274792 47.57193206 -52.86860072 42.49868827 -49.43380737 37.41900635 C-47.75904307 34.94230689 -46.08305387 32.46643718 -44.40710449 29.99053955 C-43.61305766 28.81663617 -42.81964879 27.64230093 -42.02697754 26.46746826 C-40.16492232 23.70773328 -38.28908044 20.96495708 -36.36328125 18.24902344 C-34.73343013 15.90012035 -33.42994408 13.53343967 -32.18359375 10.96191406 C-25.06940288 -2.65711673 -13.91121376 -0.76596324 0 0 Z " fill="#8BA1F1" transform="translate(285.125,-0.875)"/>
<path d="M0 0 C2.20471178 0.09546242 4.40982297 0.18212756 6.61523438 0.25976562 C11.9814715 0.46767548 17.33260143 0.78401543 22.6875 1.1875 C17.98324334 8.68971938 13.1160473 16.06532455 8.12692261 23.38088989 C6.89563869 25.18638334 5.6664664 26.99329949 4.43774414 28.80053711 C2.28102169 31.97214243 0.12270028 35.14265573 -2.03607178 38.31286621 C-3.27641958 40.13451028 -4.51649684 41.95633794 -5.75634766 43.77832031 C-6.15205963 44.3596019 -6.54777161 44.94088348 -6.95547485 45.53977966 C-7.74755566 46.70505102 -8.5382288 47.87128047 -9.32748413 49.03846741 C-11.29454577 51.94491452 -13.28149684 54.83270337 -15.31640625 57.69213867 C-19.03237548 62.96491119 -22.39673509 68.07669152 -24.9980011 73.99761963 C-32.63559667 91.38081161 -32.63559667 91.38081161 -40.3125 95.1875 C-55.1698788 99.18871989 -72.22276581 96.83591066 -87.3125 95.1875 C-82.15589823 85.71931977 -82.15589823 85.71931977 -79.18359375 81.56640625 C-78.63034424 80.78652344 -78.07709473 80.00664063 -77.50708008 79.203125 C-76.92724365 78.39359375 -76.34740723 77.5840625 -75.75 76.75 C-71.2894879 70.44979566 -66.88311496 64.12638133 -62.625 57.6875 C-57.42855056 49.83841743 -52.16251734 42.0378716 -46.875 34.25 C-46.49606598 33.69151367 -46.11713196 33.13302734 -45.72671509 32.55761719 C-45.16940201 31.73632324 -45.16940201 31.73632324 -44.60083008 30.8984375 C-44.22728394 30.34551529 -43.85373779 29.79259308 -43.46887207 29.22291565 C-42.69477652 28.08927071 -41.90988365 26.96293016 -41.11486816 25.84385681 C-38.67765642 22.37896133 -36.60880971 18.89127397 -34.67456055 15.11938477 C-26.02564861 -0.82981653 -17.21361672 -1.30165293 0 0 Z " fill="#3E5AC7" transform="translate(1270.3125,-1.1875)"/>
<path d="M0 0 C-5.15660177 9.46818023 -5.15660177 9.46818023 -8.12890625 13.62109375 C-8.68215576 14.40097656 -9.23540527 15.18085938 -9.80541992 15.984375 C-10.67517456 17.19867187 -10.67517456 17.19867187 -11.5625 18.4375 C-16.0230121 24.73770434 -20.42938504 31.06111867 -24.6875 37.5 C-29.88394944 45.34908257 -35.14998266 53.1496284 -40.4375 60.9375 C-40.81643402 61.49598633 -41.19536804 62.05447266 -41.58578491 62.62988281 C-41.95732697 63.17741211 -42.32886902 63.72494141 -42.71166992 64.2890625 C-43.27198914 65.11844582 -43.27198914 65.11844582 -43.84362793 65.96458435 C-44.61772348 67.09822929 -45.40261635 68.22456984 -46.19763184 69.34364319 C-48.63484358 72.80853867 -50.70369029 76.29622603 -52.63793945 80.06811523 C-59.47549011 92.67703906 -59.47549011 92.67703906 -65.5942688 94.9737854 C-72.82545262 96.34301602 -80.02296978 95.73871701 -87.3125 95.1875 C-89.51721178 95.09203758 -91.72232297 95.00537244 -93.92773438 94.92773438 C-99.2939715 94.71982452 -104.64510143 94.40348457 -110 94 C-105.29574334 86.49778062 -100.4285473 79.12217545 -95.43942261 71.80661011 C-94.20813869 70.00111666 -92.9789664 68.19420051 -91.75024414 66.38696289 C-89.59352169 63.21535757 -87.43520028 60.04484427 -85.27642822 56.87463379 C-84.03608042 55.05298972 -82.79600316 53.23116206 -81.55615234 51.40917969 C-81.16044037 50.8278981 -80.76472839 50.24661652 -80.35702515 49.64772034 C-79.56494434 48.48244898 -78.7742712 47.31621953 -77.98501587 46.14903259 C-76.01795423 43.24258548 -74.03100316 40.35479663 -71.99609375 37.49536133 C-68.28012452 32.22258881 -64.91576491 27.11080848 -62.3144989 21.18988037 C-49.95688359 -6.93609165 -27.31560064 -2.98397087 0 0 Z " fill="#3E5AC7" transform="translate(1105,0)"/>
<path d="M0 0 C-7.30107527 11.59045699 -14.93897518 22.9435767 -22.63821411 34.27212524 C-23.85298578 36.05957183 -25.06706954 37.84748405 -26.28100586 39.63549805 C-29.70904527 44.68432648 -33.13848232 49.73220498 -36.56835938 54.77978516 C-38.66597479 57.86676784 -40.7629948 60.95415434 -42.85971069 64.04174805 C-44.01574847 65.74367219 -45.17252608 67.44509161 -46.3293457 69.14648438 C-47.05726318 70.21833984 -47.78518066 71.29019531 -48.53515625 72.39453125 C-49.28055664 73.44970947 -50.02595703 74.5048877 -50.79394531 75.59204102 C-52.44841686 78.01617532 -53.71607889 80.45547362 -54.93261719 83.12475586 C-57.01409854 87.38342599 -59.03556158 91.24068288 -63 94 C-70.73377256 96.41408225 -79.15950893 95.40741432 -87.125 94.9375 C-89.34352454 94.86217772 -91.56229454 94.79375061 -93.78125 94.73242188 C-99.19289407 94.56790009 -104.59530072 94.31772289 -110 94 C-107.53090082 89.59444659 -104.97084203 85.3501939 -102.12109375 81.17578125 C-101.75706955 80.64089081 -101.39304535 80.10600037 -101.01799011 79.55490112 C-99.82687076 77.80580013 -98.63216915 76.05917785 -97.4375 74.3125 C-96.58810089 73.06635156 -95.73898529 71.82000984 -94.89013672 70.57348633 C-93.13049845 67.98996796 -91.36965476 65.40727776 -89.60791016 62.82519531 C-86.76612501 58.65878581 -83.92639751 54.49091014 -81.1058197 50.31010437 C-79.16978853 47.4434773 -77.21298397 44.59633544 -75.20776367 41.77758789 C-71.28131607 36.20647343 -67.76089798 30.72917205 -64.84025574 24.55755615 C-50.64840571 -5.27765099 -30.72131956 -3.90054478 0 0 Z " fill="#3E5AC7" transform="translate(355,0)"/>
<path d="M0 0 C2.21852454 0.07532228 4.43729454 0.14374939 6.65625 0.20507812 C12.06789407 0.36959991 17.47030072 0.61977711 22.875 0.9375 C20.40590082 5.34305341 17.84584203 9.5873061 14.99609375 13.76171875 C14.63197891 14.29674515 14.26786407 14.83177155 13.89271545 15.38301086 C12.70169219 17.13197769 11.50708546 18.87846478 10.3125 20.625 C9.4645674 21.8689523 8.61691654 23.11309669 7.76953125 24.35742188 C6.01134109 26.93873153 4.25194969 29.51921601 2.49169922 32.09912109 C-1.16777971 37.46458859 -4.81244391 42.84009212 -8.45727539 48.21551514 C-10.40704656 51.09074481 -12.35786117 53.96526631 -14.30859375 56.83984375 C-14.69703461 57.41228821 -15.08547546 57.98473267 -15.48568726 58.57452393 C-18.03139264 62.32611038 -20.57740442 66.07748879 -23.12356567 69.82876587 C-24.88680097 72.42657341 -26.64994701 75.02444151 -28.41308594 77.62231445 C-29.25597738 78.86420681 -30.09891286 80.10606928 -30.94189453 81.34790039 C-32.10850892 83.06649405 -33.27497343 84.78518935 -34.44140625 86.50390625 C-35.10599854 87.48302979 -35.77059082 88.46215332 -36.45532227 89.47094727 C-37.68559399 91.28838187 -38.90760846 93.11141268 -40.125 94.9375 C-42.14981079 95.29826355 -42.14981079 95.29826355 -44.66650391 95.27807617 C-46.07774033 95.27773628 -46.07774033 95.27773628 -47.51748657 95.27738953 C-48.53523163 95.26190567 -49.55297668 95.24642181 -50.6015625 95.23046875 C-51.64194672 95.22622391 -52.68233093 95.22197906 -53.75424194 95.21760559 C-57.08642147 95.20077482 -60.41800241 95.16311422 -63.75 95.125 C-66.00519962 95.10995887 -68.26040869 95.09626947 -70.515625 95.08398438 C-76.05228855 95.05085699 -81.58860152 95.0006142 -87.125 94.9375 C-79.82392473 83.34704301 -72.18602482 71.9939233 -64.48678589 60.66537476 C-63.27201422 58.87792817 -62.05793046 57.09001595 -60.84399414 55.30200195 C-57.41595473 50.25317352 -53.98651768 45.20529502 -50.55664062 40.15771484 C-48.45902521 37.07073216 -46.3620052 33.98334566 -44.26528931 30.89575195 C-43.10925153 29.19382781 -41.95247392 27.49240839 -40.7956543 25.79101562 C-40.06773682 24.71916016 -39.33981934 23.64730469 -38.58984375 22.54296875 C-37.84444336 21.48779053 -37.09904297 20.4326123 -36.33105469 19.34545898 C-34.67658314 16.92132468 -33.40892111 14.48202638 -32.19238281 11.81274414 C-25.19515108 -2.50345515 -14.49588532 -0.85516688 0 0 Z " fill="#3E5AC7" transform="translate(707.125,-0.9375)"/>
<path d="M0 0 C1.22244667 0.00333092 1.22244667 0.00333092 2.46958923 0.00672913 C3.39046829 0.00680466 4.31134735 0.00688019 5.26013184 0.00695801 C6.2611644 0.01211929 7.26219696 0.01728058 8.29356384 0.02259827 C9.31316696 0.02401321 10.33277008 0.02542816 11.38327026 0.02688599 C14.65417867 0.03250355 17.92501972 0.04505902 21.19590759 0.05775452 C23.40749515 0.06276725 25.61908377 0.06733055 27.83067322 0.07142639 C33.26494116 0.08247868 38.69916957 0.09923389 44.13340759 0.12025452 C42.87050026 3.55183982 41.42556577 6.38161461 39.29747009 9.35072327 C38.73455261 10.1434967 38.17163513 10.93627014 37.59165955 11.75306702 C36.9866864 12.59611389 36.38171326 13.43916077 35.75840759 14.30775452 C31.23399709 20.69053906 26.75989918 27.09321651 22.44590759 33.62025452 C14.50706867 45.61210108 6.403127 57.49213178 -1.68537903 69.383255 C-2.84735387 71.09196384 -4.00870176 72.80109687 -5.16981506 74.51039124 C-7.27587858 77.61032742 -9.38343863 80.70923958 -11.49159241 83.80775452 C-12.12492493 84.74006897 -12.75825745 85.67238342 -13.41078186 86.63294983 C-13.98658997 87.47825256 -14.56239807 88.3235553 -15.15565491 89.19447327 C-15.65790588 89.93270325 -16.16015686 90.67093323 -16.67762756 91.43153381 C-17.86659241 93.12025452 -17.86659241 93.12025452 -18.86659241 94.12025452 C-20.30949027 94.21321267 -21.75689025 94.23771965 -23.20277405 94.23377991 C-24.58409264 94.23366661 -24.58409264 94.23366661 -25.99331665 94.23355103 C-26.99434921 94.22838974 -27.99538177 94.22322845 -29.02674866 94.21791077 C-30.55615334 94.21578835 -30.55615334 94.21578835 -32.11645508 94.21362305 C-35.38736348 94.20800548 -38.65820454 94.19545002 -41.92909241 94.18275452 C-44.14067996 94.17774178 -46.35226859 94.17317848 -48.56385803 94.16908264 C-53.99812598 94.15803035 -59.43235438 94.14127515 -64.86659241 94.12025452 C-63.60368507 90.68866921 -62.15875058 87.85889442 -60.03065491 84.88978577 C-59.46773743 84.09701233 -58.90481995 83.30423889 -58.32484436 82.48744202 C-57.41738464 81.2228717 -57.41738464 81.2228717 -56.49159241 79.93275452 C-51.96718191 73.54996997 -47.493084 67.14729252 -43.17909241 60.62025452 C-35.24025349 48.62840795 -27.13631181 36.74837726 -19.04780579 24.85725403 C-17.88583094 23.1485452 -16.72448305 21.43941216 -15.56336975 19.7301178 C-13.45730623 16.63018161 -11.34974618 13.53126945 -9.24159241 10.43275452 C-8.60825989 9.50044006 -7.97492737 8.56812561 -7.32240295 7.6075592 C-6.74659485 6.76225647 -6.17078674 5.91695374 -5.57752991 5.04603577 C-5.07527893 4.30780579 -4.57302795 3.56957581 -4.05555725 2.80897522 C-2.17659117 0.14022607 -2.17659117 0.14022607 0 0 Z " fill="#3E5AC7" transform="translate(497.86659240722656,-0.1202545166015625)"/>
<path d="M0 0 C1.03613937 0.00990463 2.07227875 0.01980927 3.13981628 0.03001404 C6.44231995 0.06913367 9.74147358 0.15695506 13.04296875 0.24609375 C15.28445713 0.28121056 17.52599773 0.31314891 19.76757812 0.34179688 C25.25634721 0.41888669 30.74316868 0.53595017 36.23046875 0.68359375 C32.41277643 6.73464974 28.57388942 12.75273904 24.48046875 18.62109375 C19.35335193 26.02896956 14.28614089 33.47686897 9.23046875 40.93359375 C8.4166088 42.13331673 7.60272516 43.33302364 6.78881836 44.53271484 C2.97182385 50.15996977 -0.84210399 55.789275 -4.64962769 61.42294312 C-6.34411984 63.92964795 -8.04002953 66.43539209 -9.73608398 68.94104004 C-10.53530041 70.12260505 -11.33383016 71.30463489 -12.1315918 72.48718262 C-13.97065542 75.21319699 -15.82251083 77.92308776 -17.72607422 80.60473633 C-19.83760723 83.61916538 -19.83760723 83.61916538 -21.27001953 86.90893555 C-23.13113046 90.48664693 -24.43626596 92.37084554 -27.76953125 94.68359375 C-35.40693903 96.49827278 -43.49882425 95.71212975 -51.26953125 95.37109375 C-53.4490958 95.31587596 -55.62879409 95.26569299 -57.80859375 95.22070312 C-63.13183784 95.0998918 -68.45006357 94.91623653 -73.76953125 94.68359375 C-72.16366385 91.39753664 -70.33858328 88.41522707 -68.3046875 85.37109375 C-67.24326538 83.77986694 -67.24326538 83.77986694 -66.16040039 82.15649414 C-65.38440725 80.9987736 -64.60828033 79.8411427 -63.83203125 78.68359375 C-63.02262764 77.4732777 -62.21330291 76.26290889 -61.40405273 75.05249023 C-53.7959482 63.68381071 -46.11619666 52.36381833 -38.42088318 41.05406189 C-35.44983017 36.68671721 -32.48545043 32.31488607 -29.5234375 27.94140625 C-28.65618619 26.66136505 -27.7889175 25.38133562 -26.92163086 24.10131836 C-25.67374092 22.25957304 -24.42606209 20.41768731 -23.17922974 18.57522583 C-22.03566065 16.885538 -20.89098799 15.19660262 -19.74609375 13.5078125 C-18.772771 12.0705481 -18.772771 12.0705481 -17.77978516 10.60424805 C-17.11640137 9.64043213 -16.45301758 8.67661621 -15.76953125 7.68359375 C-15.28414635 6.74580833 -15.28414635 6.74580833 -14.78895569 5.78907776 C-11.16308888 -0.59182729 -6.88253954 -0.24809826 0 0 Z " fill="#3E5AC7" transform="translate(881.76953125,-0.68359375)"/>
<path d="M0 0 C2.17956455 0.05521779 4.35926284 0.10540076 6.5390625 0.15039062 C11.86230659 0.27120195 17.18053232 0.45485722 22.5 0.6875 C20.8941326 3.97355711 19.06905203 6.95586668 17.03515625 10 C15.97373413 11.59122681 15.97373413 11.59122681 14.89086914 13.21459961 C14.114876 14.37232015 13.33874908 15.52995105 12.5625 16.6875 C11.75309639 17.89781605 10.94377166 19.10818486 10.13452148 20.31860352 C2.52641695 31.68728304 -5.15333459 43.00727542 -12.84864807 54.31703186 C-15.81970108 58.68437654 -18.78408082 63.05620768 -21.74609375 67.4296875 C-22.61334506 68.7097287 -23.48061375 69.98975813 -24.34790039 71.26977539 C-25.59579033 73.11152071 -26.84346916 74.95340644 -28.09030151 76.79586792 C-29.2338706 78.48555575 -30.37854326 80.17449113 -31.5234375 81.86328125 C-32.49676025 83.30054565 -32.49676025 83.30054565 -33.48974609 84.7668457 C-34.15312988 85.73066162 -34.81651367 86.69447754 -35.5 87.6875 C-35.82612778 88.31269028 -36.15225555 88.93788055 -36.48826599 89.58201599 C-37.67033306 91.65094876 -38.6913431 93.12835579 -40.5 94.6875 C-44.02818687 95.64703298 -47.41719739 95.50499769 -51.05078125 95.37109375 C-52.57169624 95.3562368 -52.57169624 95.3562368 -54.12333679 95.34107971 C-57.35454364 95.30196536 -60.58232424 95.21414641 -63.8125 95.125 C-66.00581023 95.08988244 -68.19917384 95.05794422 -70.39257812 95.02929688 C-75.76288318 94.95221438 -81.13119685 94.83515727 -86.5 94.6875 C-85.23143118 91.25594058 -83.77319329 88.37549479 -81.69140625 85.37109375 C-81.11938477 84.5394873 -80.54736328 83.70788086 -79.95800781 82.85107422 C-79.33249023 81.95146973 -78.70697266 81.05186523 -78.0625 80.125 C-76.6935436 78.13704013 -75.3250772 76.14874277 -73.95703125 74.16015625 C-73.23080566 73.10715332 -72.50458008 72.05415039 -71.75634766 70.96923828 C-68.29367147 65.93295899 -64.86491772 60.87386344 -61.43688965 55.81396484 C-60.2441455 54.05386065 -59.05044803 52.29440687 -57.85644531 50.53515625 C-54.11242608 45.01828636 -50.37147822 39.4993729 -46.63803101 33.9753418 C-44.9388257 31.46159655 -43.23821129 28.94880618 -41.53747559 26.43609619 C-40.73655944 25.25196143 -39.93631932 24.06736906 -39.13684082 22.88226318 C-37.29814459 20.15679687 -35.44663863 17.44746815 -33.54345703 14.76635742 C-31.43192402 11.75192837 -31.43192402 11.75192837 -29.99951172 8.4621582 C-23.89233257 -3.27799337 -11.49608544 -0.50453311 0 0 Z " fill="#3E5AC7" transform="translate(1457.5,-0.6875)"/>
<path d="M0 0 C2.17956455 0.05521779 4.35926284 0.10540076 6.5390625 0.15039062 C11.86230659 0.27120195 17.18053232 0.45485722 22.5 0.6875 C20.8941326 3.97355711 19.06905203 6.95586668 17.03515625 10 C15.97373413 11.59122681 15.97373413 11.59122681 14.89086914 13.21459961 C14.114876 14.37232015 13.33874908 15.52995105 12.5625 16.6875 C11.75309639 17.89781605 10.94377166 19.10818486 10.13452148 20.31860352 C2.52641695 31.68728304 -5.15333459 43.00727542 -12.84864807 54.31703186 C-15.81970108 58.68437654 -18.78408082 63.05620768 -21.74609375 67.4296875 C-22.61334506 68.7097287 -23.48061375 69.98975813 -24.34790039 71.26977539 C-25.59579033 73.11152071 -26.84346916 74.95340644 -28.09030151 76.79586792 C-29.2338706 78.48555575 -30.37854326 80.17449113 -31.5234375 81.86328125 C-32.49676025 83.30054565 -32.49676025 83.30054565 -33.48974609 84.7668457 C-34.15312988 85.73066162 -34.81651367 86.69447754 -35.5 87.6875 C-35.82612778 88.31269028 -36.15225555 88.93788055 -36.48826599 89.58201599 C-37.67033306 91.65094876 -38.6913431 93.12835579 -40.5 94.6875 C-44.02818687 95.64703298 -47.41719739 95.50499769 -51.05078125 95.37109375 C-52.57169624 95.3562368 -52.57169624 95.3562368 -54.12333679 95.34107971 C-57.35454364 95.30196536 -60.58232424 95.21414641 -63.8125 95.125 C-66.00581023 95.08988244 -68.19917384 95.05794422 -70.39257812 95.02929688 C-75.76288318 94.95221438 -81.13119685 94.83515727 -86.5 94.6875 C-85.23143118 91.25594058 -83.77319329 88.37549479 -81.69140625 85.37109375 C-81.11938477 84.5394873 -80.54736328 83.70788086 -79.95800781 82.85107422 C-79.33249023 81.95146973 -78.70697266 81.05186523 -78.0625 80.125 C-76.6935436 78.13704013 -75.3250772 76.14874277 -73.95703125 74.16015625 C-73.23080566 73.10715332 -72.50458008 72.05415039 -71.75634766 70.96923828 C-68.29367147 65.93295899 -64.86491772 60.87386344 -61.43688965 55.81396484 C-60.2441455 54.05386065 -59.05044803 52.29440687 -57.85644531 50.53515625 C-54.11242608 45.01828636 -50.37147822 39.4993729 -46.63803101 33.9753418 C-44.9388257 31.46159655 -43.23821129 28.94880618 -41.53747559 26.43609619 C-40.73655944 25.25196143 -39.93631932 24.06736906 -39.13684082 22.88226318 C-37.29814459 20.15679687 -35.44663863 17.44746815 -33.54345703 14.76635742 C-31.43192402 11.75192837 -31.43192402 11.75192837 -29.99951172 8.4621582 C-23.89233257 -3.27799337 -11.49608544 -0.50453311 0 0 Z " fill="#3E5AC7" transform="translate(144.5,-0.6875)"/>
<path d="M0 0 C-1.34081597 3.69938453 -3.00013917 6.68080935 -5.2734375 9.88671875 C-5.92675049 10.81508545 -6.58006348 11.74345215 -7.25317383 12.69995117 C-7.95337646 13.68584229 -8.6535791 14.6717334 -9.375 15.6875 C-10.84641192 17.78029458 -12.31645342 19.87405332 -13.78515625 21.96875 C-14.50848145 23 -15.23180664 24.03125 -15.97705078 25.09375 C-18.64278097 28.92344492 -21.23993498 32.79483321 -23.8125 36.6875 C-32.09549715 49.20094357 -40.55568104 61.59512807 -49 74 C-49.69528809 75.02158203 -50.39057617 76.04316406 -51.10693359 77.09570312 C-52.94463587 79.7941014 -54.78421955 82.49120092 -56.625 85.1875 C-57.16310303 85.97697021 -57.70120605 86.76644043 -58.25561523 87.57983398 C-61.88226108 92.88226108 -61.88226108 92.88226108 -63 94 C-64.44289787 94.09295815 -65.89029785 94.11746513 -67.33618164 94.11352539 C-68.71750023 94.11341209 -68.71750023 94.11341209 -70.12672424 94.11329651 C-71.12775681 94.10813522 -72.12878937 94.10297394 -73.16015625 94.09765625 C-74.68956093 94.09553383 -74.68956093 94.09553383 -76.24986267 94.09336853 C-79.52077107 94.08775097 -82.79161213 94.0751955 -86.0625 94.0625 C-88.27408756 94.05748726 -90.48567618 94.05292396 -92.69726562 94.04882812 C-98.13153357 94.03777584 -103.56576197 94.02102063 -109 94 C-103.56942768 85.32228134 -97.88104034 76.83779099 -92.125 68.375 C-91.19150541 66.99977288 -90.25815814 65.62444575 -89.32495117 64.24902344 C-85.05015391 57.95051383 -80.76772839 51.65721947 -76.48046875 45.3671875 C-75.78719482 44.34439697 -75.0939209 43.32160645 -74.37963867 42.26782227 C-73.0003815 40.25424037 -71.60062518 38.25454934 -70.1809082 36.26928711 C-66.78100774 31.45488386 -63.78756166 26.77075251 -61.417099 21.38227844 C-49.06682748 -6.5534108 -27.60018541 -3.00374088 0 0 Z " fill="#3E5AC7" transform="translate(823,0)"/>
<path d="M0 0 C-2.66452307 4.90663046 -5.33561043 9.71425155 -8.56640625 14.27734375 C-9.21005127 15.19281982 -9.85369629 16.1082959 -10.5168457 17.05151367 C-11.19191162 18.00388916 -11.86697754 18.95626465 -12.5625 19.9375 C-17.38655228 26.8069286 -22.18247602 33.68557805 -26.8125 40.6875 C-32.00843336 48.53688882 -37.27592184 56.33652451 -42.5625 64.125 C-43.143983 64.98235245 -43.143983 64.98235245 -43.73721313 65.85702515 C-44.11695282 66.41685089 -44.4966925 66.97667664 -44.88793945 67.5534668 C-45.26635986 68.11363998 -45.64478027 68.67381317 -46.03466797 69.2509613 C-46.80869346 70.38472772 -47.59326055 71.5113656 -48.38793945 72.63075256 C-50.6113486 75.79005779 -52.50049297 78.92356064 -54.20581055 82.39355469 C-59.70812289 92.90787145 -59.70812289 92.90787145 -65.4447937 94.81109619 C-72.51554106 95.98591642 -79.57203423 95.45972686 -86.6875 95 C-88.85325213 94.91963694 -91.01929131 94.84665133 -93.18554688 94.78125 C-98.46335075 94.60593937 -103.73032866 94.33926842 -109 94 C-108.2076788 92.55651698 -107.41324427 91.11419382 -106.61791992 89.67236328 C-106.17574631 88.86904572 -105.73357269 88.06572815 -105.27799988 87.23806763 C-103.79182501 84.63543838 -102.12652235 82.25959337 -100.3125 79.875 C-97.3219471 75.84161593 -94.45352818 71.75199499 -91.6875 67.5625 C-88.44361441 62.65726957 -85.17454504 57.77036601 -81.875 52.90234375 C-81.31746033 52.07613274 -81.31746033 52.07613274 -80.74865723 51.23323059 C-78.75110406 48.27881953 -76.73033432 45.34498111 -74.66601562 42.43676758 C-70.5796144 36.62838055 -66.84066917 30.91789789 -63.77380371 24.49864197 C-49.64128689 -4.99417757 -30.49686905 -3.8573342 0 0 Z " fill="#3E5AC7" transform="translate(1386,0)"/>
<path d="M0 0 C1.22244667 0.00333092 1.22244667 0.00333092 2.46958923 0.00672913 C3.39046829 0.00680466 4.31134735 0.00688019 5.26013184 0.00695801 C6.2611644 0.01211929 7.26219696 0.01728058 8.29356384 0.02259827 C9.31316696 0.02401321 10.33277008 0.02542816 11.38327026 0.02688599 C14.65417867 0.03250355 17.92501972 0.04505902 21.19590759 0.05775452 C23.40749515 0.06276725 25.61908377 0.06733055 27.83067322 0.07142639 C33.26494116 0.08247868 38.69916957 0.09923389 44.13340759 0.12025452 C38.70283527 8.79797317 33.01444794 17.28246353 27.25840759 25.74525452 C26.32491301 27.12048164 25.39156573 28.49580877 24.45835876 29.87123108 C20.18356151 36.16974069 15.90113598 42.46303505 11.61387634 48.75306702 C10.92060242 49.77585754 10.22732849 50.79864807 9.51304626 51.85243225 C8.13378909 53.86601415 6.73403277 55.86570518 5.3143158 57.85096741 C1.91441533 62.66537066 -1.07903075 67.349502 -3.44949341 72.73797607 C-11.16553059 90.19126174 -11.16553059 90.19126174 -18.86659241 94.12025452 C-33.38261584 98.14516645 -50.1119414 95.72600997 -64.86659241 94.12025452 C-63.52577643 90.42086999 -61.86645324 87.43944516 -59.59315491 84.23353577 C-58.93968079 83.30492737 -58.28620667 82.37631897 -57.6129303 81.41957092 C-56.91288879 80.43392151 -56.21284729 79.44827209 -55.49159241 78.43275452 C-54.02277233 76.34387494 -52.55533573 74.25402192 -51.08924866 72.16322327 C-50.36624573 71.13245667 -49.6432428 70.10169006 -48.89833069 69.03968811 C-46.18704436 65.14380228 -43.54623231 61.20477696 -40.92909241 57.24525452 C-34.06286043 46.87321362 -27.05422028 36.59905903 -20.04774475 26.32142639 C-17.85613144 23.10490146 -15.66765003 19.88626516 -13.47987366 16.66712952 C-12.10882556 14.65147346 -10.7377337 12.63584717 -9.36659241 10.62025452 C-8.72552551 9.6763385 -8.08445862 8.73242249 -7.42396545 7.75990295 C-6.83784485 6.89913147 -6.25172424 6.03835999 -5.64784241 5.15150452 C-5.13286194 4.3941803 -4.61788147 3.63685608 -4.08729553 2.85658264 C-2.1776437 0.14029388 -2.1776437 0.14029388 0 0 Z " fill="#3E5AC7" transform="translate(216.86659240722656,-0.1202545166015625)"/>
<path d="M0 0 C1.22244667 0.00333092 1.22244667 0.00333092 2.46958923 0.00672913 C3.39046829 0.00680466 4.31134735 0.00688019 5.26013184 0.00695801 C6.2611644 0.01211929 7.26219696 0.01728058 8.29356384 0.02259827 C9.31316696 0.02401321 10.33277008 0.02542816 11.38327026 0.02688599 C14.65417867 0.03250355 17.92501972 0.04505902 21.19590759 0.05775452 C23.40749515 0.06276725 25.61908377 0.06733055 27.83067322 0.07142639 C33.26494116 0.08247868 38.69916957 0.09923389 44.13340759 0.12025452 C38.74172911 8.7338707 33.09794591 17.1574211 27.38340759 25.55775452 C26.45657056 26.92296125 25.52989714 28.28827908 24.6033783 29.65370178 C21.78205603 33.81058064 18.95807997 37.96565161 16.13340759 42.12025452 C15.27647137 43.38066939 14.41953769 44.641086 13.56260681 45.90150452 C13.15251877 46.50435776 12.74243073 47.107211 12.31991577 47.72833252 C11.509051 48.92184712 10.69951858 50.11626805 9.89135742 51.31161499 C7.91957109 54.22534757 5.92864239 57.12108902 3.88951111 59.98817444 C-0.01535268 65.52939334 -3.34531948 70.91391476 -5.99159241 77.20228577 C-11.9716331 90.30656266 -11.9716331 90.30656266 -18.86659241 94.12025452 C-33.53182678 97.71672779 -50.01204614 95.54576462 -64.86659241 94.12025452 C-63.60368507 90.68866921 -62.15875058 87.85889442 -60.03065491 84.88978577 C-59.46773743 84.09701233 -58.90481995 83.30423889 -58.32484436 82.48744202 C-57.41738464 81.2228717 -57.41738464 81.2228717 -56.49159241 79.93275452 C-51.96718191 73.54996997 -47.493084 67.14729252 -43.17909241 60.62025452 C-35.24025349 48.62840795 -27.13631181 36.74837726 -19.04780579 24.85725403 C-17.88583094 23.1485452 -16.72448305 21.43941216 -15.56336975 19.7301178 C-13.45730623 16.63018161 -11.34974618 13.53126945 -9.24159241 10.43275452 C-8.60825989 9.50044006 -7.97492737 8.56812561 -7.32240295 7.6075592 C-6.74659485 6.76225647 -6.17078674 5.91695374 -5.57752991 5.04603577 C-5.07527893 4.30780579 -4.57302795 3.56957581 -4.05555725 2.80897522 C-2.17659117 0.14022607 -2.17659117 0.14022607 0 0 Z " fill="#3E5AC7" transform="translate(1529.8665924072266,-0.1202545166015625)"/>
<path d="M0 0 C1.53650459 -0.03580925 1.53650459 -0.03580925 3.10404968 -0.07234192 C13.7399691 -0.23816166 24.36748245 0.3352714 34.96875 1.15234375 C34.17490402 2.59799143 33.37902008 4.04252013 32.58227539 5.48657227 C32.13928604 6.29111343 31.69629669 7.0956546 31.23988342 7.92457581 C29.79290808 10.46052146 28.17847242 12.77049226 26.40625 15.08984375 C23.00952655 19.66913018 19.80059918 24.33640945 16.65625 29.08984375 C11.41696823 37.00073327 6.11315261 44.86624245 0.78125 52.71484375 C0.38039185 53.3050531 -0.02046631 53.89526245 -0.43347168 54.50335693 C-3.29800817 58.72063108 -6.16440197 62.93664075 -9.03125 67.15234375 C-9.8590562 68.3697871 -10.68685569 69.58723501 -11.51464844 70.8046875 C-17.7547826 79.9818742 -17.7547826 79.9818742 -20.77612305 84.42211914 C-21.439104 85.39656982 -22.10208496 86.37102051 -22.78515625 87.375 C-23.36595947 88.22843994 -23.9467627 89.08187988 -24.54516602 89.96118164 C-25.7151178 91.68622144 -26.87505604 93.41805282 -28.03125 95.15234375 C-30.01809692 95.5131073 -30.01809692 95.5131073 -32.48095703 95.49291992 C-33.40176056 95.49269333 -34.32256409 95.49246674 -35.27127075 95.49223328 C-36.26714203 95.47674942 -37.26301331 95.46126556 -38.2890625 95.4453125 C-39.30725067 95.44106766 -40.32543884 95.43682281 -41.3744812 95.43244934 C-44.63533673 95.41561954 -47.89558041 95.37795921 -51.15625 95.33984375 C-53.36327234 95.32480249 -55.57030434 95.31111312 -57.77734375 95.29882812 C-63.19552223 95.26570205 -68.61334242 95.21546028 -74.03125 95.15234375 C-71.34692818 90.20690878 -68.64755156 85.37026365 -65.39453125 80.76953125 C-64.74057373 79.83858643 -64.08661621 78.9076416 -63.4128418 77.94848633 C-62.7300415 76.98450928 -62.04724121 76.02053223 -61.34375 75.02734375 C-59.89736069 72.96690131 -58.45204479 70.90570494 -57.0078125 68.84375 C-56.3159082 67.85648926 -55.62400391 66.86922852 -54.91113281 65.85205078 C-52.63597268 62.58468445 -50.41147126 59.2878946 -48.21875 55.96484375 C-45.4466594 51.76967379 -42.65623899 47.58773878 -39.8371582 43.42393494 C-39.04292494 42.25082146 -38.2498119 41.07694886 -37.45776367 39.90235901 C-35.379771 36.82660536 -33.27974303 33.77053705 -31.1328125 30.74243164 C-26.78511616 24.56345712 -23.06067853 18.89962532 -20.73046875 11.61914062 C-15.79371805 2.74702146 -9.85975193 -0.0382717 0 0 Z " fill="#3E5AC7" transform="translate(976.03125,-1.15234375)"/>
<path d="M0 0 C1.52091499 0.01485695 1.52091499 0.01485695 3.07255554 0.03001404 C6.30376239 0.06912839 9.53154299 0.15694734 12.76171875 0.24609375 C14.95502898 0.28121131 17.14839259 0.31314953 19.34179688 0.34179688 C24.71210193 0.41887937 30.0804156 0.53593648 35.44921875 0.68359375 C22.38883 21.28716463 8.52092336 41.36142914 -5.20703125 61.5234375 C-6.3206604 63.15949951 -6.3206604 63.15949951 -7.45678711 64.82861328 C-8.83449699 66.85220753 -10.21285072 68.87536367 -11.59204102 70.89794922 C-12.54808228 72.30197998 -12.54808228 72.30197998 -13.5234375 73.734375 C-14.51682129 75.13151733 -14.51682129 75.13151733 -15.53027344 76.55688477 C-17.0870666 78.9660015 -18.25784803 81.13321573 -19.43847656 83.71459961 C-21.54007642 87.98741755 -23.60022214 91.87510922 -27.55078125 94.68359375 C-35.11052664 97.10019817 -43.37827786 96.09150012 -51.17578125 95.62109375 C-53.34612359 95.54576839 -55.51671699 95.4773418 -57.6875 95.41601562 C-62.98077908 95.2515215 -68.26460687 95.00137528 -73.55078125 94.68359375 C-72.13091006 90.98219723 -70.58564996 88.15332681 -68.17578125 84.99609375 C-64.670603 80.27444934 -61.35649094 75.4634782 -58.11328125 70.55859375 C-51.50730507 60.58440752 -44.7759861 50.69763402 -38.04005432 40.81091309 C-35.15850459 36.57997075 -32.28501963 32.34360435 -29.4140625 28.10546875 C-28.98629013 27.4741806 -28.55851776 26.84289246 -28.11778259 26.19247437 C-25.59626092 22.47133684 -25.59626092 22.47133684 -23.0763855 18.74908447 C-21.91759069 17.03661923 -20.75771491 15.3248905 -19.59765625 13.61328125 C-18.93604492 12.63601074 -18.27443359 11.65874023 -17.59277344 10.65185547 C-16.91891602 9.6723291 -16.24505859 8.69280273 -15.55078125 7.68359375 C-15.22318314 7.05619797 -14.89558502 6.42880219 -14.55805969 5.78239441 C-10.95622373 -0.52182955 -6.82996847 -0.25169633 0 0 Z " fill="#3E5AC7" transform="translate(600.55078125,-0.68359375)"/>
<path d="M0 0 C2.17034234 0.07532536 4.34093574 0.14375195 6.51171875 0.20507812 C11.80499783 0.36957225 17.08882562 0.61971847 22.375 0.9375 C20.95512881 4.63889652 19.40986871 7.46776694 17 10.625 C13.54044154 15.28707878 10.26401467 20.03251071 7.0625 24.875 C1.82342931 32.78602231 -3.48036758 40.65156085 -8.8125 48.5 C-9.21435516 49.0915387 -9.61621033 49.68307739 -10.03024292 50.2925415 C-12.07639957 53.30413647 -14.12321956 56.31527969 -16.17041016 59.32617188 C-18.20249575 62.31521568 -20.23254037 65.30563846 -22.26173401 68.29664612 C-23.4310939 70.02016085 -24.60084578 71.74340878 -25.77075195 73.46655273 C-27.21644402 75.59590468 -28.6616251 77.72560368 -30.10620117 79.85571289 C-31.08617065 81.29805298 -31.08617065 81.29805298 -32.0859375 82.76953125 C-32.65103027 83.60202393 -33.21612305 84.4345166 -33.79833984 85.29223633 C-34.70253662 86.60164185 -34.70253662 86.60164185 -35.625 87.9375 C-35.94226547 88.54939682 -36.25953094 89.16129364 -36.58641052 89.79173279 C-38.28056368 92.757141 -39.45306082 94.61766847 -42.84375 95.54301453 C-45.64731062 95.74924578 -48.36651446 95.72462016 -51.17578125 95.62109375 C-52.69669624 95.6062368 -52.69669624 95.6062368 -54.24833679 95.59107971 C-57.47954364 95.55196536 -60.70732424 95.46414641 -63.9375 95.375 C-66.13081023 95.33988244 -68.32417384 95.30794422 -70.51757812 95.27929688 C-75.88788318 95.20221438 -81.25619685 95.08515727 -86.625 94.9375 C-76.79784901 79.4321299 -66.47405261 64.27825982 -56.14292908 49.1055603 C-52.05863224 43.10673752 -47.97874899 37.10492319 -43.90206909 31.10092163 C-43.1110849 29.93621782 -42.31985781 28.77167892 -41.52835083 27.60733032 C-40.40499624 25.95478942 -39.28257273 24.30161571 -38.16015625 22.6484375 C-37.02416992 21.03739136 -37.02416992 21.03739136 -35.86523438 19.39379883 C-34.1972263 16.94839514 -32.90382971 14.48688941 -31.66601562 11.79956055 C-24.69872121 -2.34459503 -14.40190128 -0.86883529 0 0 Z " fill="#3E5AC7" transform="translate(425.625,-0.9375)"/>
<path d="M0 0 C2.17956455 0.05521779 4.35926284 0.10540076 6.5390625 0.15039062 C11.86230659 0.27120195 17.18053232 0.45485722 22.5 0.6875 C18.36518583 7.25049215 14.16086638 13.74445112 9.75 20.125 C8.61144398 21.78088214 7.4734593 23.43715722 6.3359375 25.09375 C5.72331055 25.98578125 5.11068359 26.8778125 4.47949219 27.796875 C1.16356309 32.6390803 -2.13022285 37.49628743 -5.42385864 42.35366821 C-6.62848892 44.13014514 -7.8336058 45.90629112 -9.03881836 47.68237305 C-12.83799667 53.28202966 -16.63399399 58.88380467 -20.42260742 64.49061584 C-22.13883623 67.03001856 -23.85654734 69.56841682 -25.57440186 72.10671997 C-26.38817731 73.31005256 -27.20122824 74.5138755 -28.01348877 75.7182312 C-29.14908925 77.40194115 -30.28719482 79.08393333 -31.42578125 80.765625 C-32.39124878 82.19503418 -32.39124878 82.19503418 -33.3762207 83.65332031 C-34.07706787 84.65459961 -34.77791504 85.65587891 -35.5 86.6875 C-36.10098511 87.73707886 -36.10098511 87.73707886 -36.71411133 88.80786133 C-40.13063642 94.27660666 -40.13063642 94.27660666 -43.80604553 95.37945557 C-46.62108533 95.61379006 -49.32622263 95.58824029 -52.1484375 95.46875 C-53.16096588 95.45743042 -54.17349426 95.44611084 -55.21670532 95.43444824 C-58.43809437 95.38980474 -61.65496602 95.28946373 -64.875 95.1875 C-67.06373762 95.1473575 -69.25254529 95.11085808 -71.44140625 95.078125 C-76.7958017 94.99011123 -82.14757818 94.85639988 -87.5 94.6875 C-83.68230768 88.63644401 -79.84342067 82.61835471 -75.75 76.75 C-70.62288318 69.34212419 -65.55567214 61.89422478 -60.5 54.4375 C-59.68614005 53.23777702 -58.87225641 52.03807011 -58.05834961 50.83837891 C-54.2413551 45.21112398 -50.42742726 39.58181875 -46.61990356 33.94815063 C-44.92541141 31.4414458 -43.22950172 28.93570166 -41.53344727 26.43005371 C-40.73423084 25.2484887 -39.93570109 24.06645886 -39.13793945 22.88391113 C-37.29887583 20.15789676 -35.44702042 17.44800599 -33.54345703 14.76635742 C-31.43192402 11.75192837 -31.43192402 11.75192837 -29.99951172 8.4621582 C-23.89233257 -3.27799337 -11.49608544 -0.50453311 0 0 Z " fill="#3E5AC7" transform="translate(1176.5,-0.6875)"/>
<path d="M0 0 C24.09 0 48.18 0 73 0 C67.37927312 10.11730838 67.37927312 10.11730838 64.36328125 14.3828125 C63.70932373 15.31375732 63.05536621 16.24470215 62.3815918 17.20385742 C61.35739136 18.649823 61.35739136 18.649823 60.3125 20.125 C58.86611069 22.18544244 57.42079479 24.24663881 55.9765625 26.30859375 C55.2846582 27.29585449 54.59275391 28.28311523 53.87988281 29.30029297 C51.60472268 32.5676593 49.38022126 35.86444915 47.1875 39.1875 C44.02829534 43.96851275 40.83870546 48.72809505 37.625 53.47265625 C37.22786804 54.05917465 36.83073608 54.64569305 36.42156982 55.24998474 C34.34875047 58.308468 32.26975363 61.36251663 30.18066406 64.40991211 C26.42777362 69.89195553 22.72640832 75.37711988 19.234375 81.03125 C18.67016846 81.92231445 18.10596191 82.81337891 17.5246582 83.73144531 C16.49924054 85.35861169 15.5007263 87.00318927 14.53588867 88.66699219 C13.15234375 90.828125 13.15234375 90.828125 10 94 C6.7 94 3.4 94 0 94 C0 62.98 0 31.96 0 0 Z " fill="#3D58C3" transform="translate(0,0)"/>
<path d="M0 0 C0.33 0 0.66 0 1 0 C1 30.03 1 60.06 1 91 C-19.46 91 -39.92 91 -61 91 C-58.45482095 86.54593667 -55.9921015 82.38133552 -53.12109375 78.17578125 C-52.75697891 77.64075485 -52.39286407 77.10572845 -52.01771545 76.55448914 C-50.82669219 74.80552231 -49.63208546 73.05903522 -48.4375 71.3125 C-47.5895674 70.0685477 -46.74191654 68.82440331 -45.89453125 67.58007812 C-44.13634109 64.99876847 -42.37694969 62.41828399 -40.61669922 59.83837891 C-36.95706259 54.47268019 -33.31237101 49.096861 -29.66744995 43.72116089 C-28.50171563 42.00252933 -27.33510657 40.28449495 -26.16821289 38.56665039 C-22.42870393 33.06069274 -18.6947404 27.5511473 -14.97564697 22.03137207 C-13.20447319 19.40321979 -11.43083123 16.77673793 -9.65698242 14.15039062 C-8.80596697 12.88885867 -7.95618332 11.62649483 -7.10766602 10.36328125 C-5.93679207 8.62032587 -4.76183988 6.88019024 -3.5859375 5.140625 C-2.9161084 4.14579102 -2.2462793 3.15095703 -1.55615234 2.12597656 C-1.04262207 1.4244043 -0.5290918 0.72283203 0 0 Z " fill="#3E5AC7" transform="translate(1619,3)"/>
<path d="M0 0 C0.33 0 0.66 0 1 0 C1 7.26 1 14.52 1 22 C-3.95 22 -8.9 22 -14 22 C-12.51820037 18.29550092 -11.42980804 15.9202148 -9.21484375 12.79296875 C-8.41916992 11.66665039 -8.41916992 11.66665039 -7.60742188 10.51757812 C-7.05634766 9.74865234 -6.50527344 8.97972656 -5.9375 8.1875 C-5.38255859 7.39923828 -4.82761719 6.61097656 -4.25585938 5.79882812 C-1.21457827 1.52029015 -1.21457827 1.52029015 0 0 Z " fill="#8AA0F1" transform="translate(1619,72)"/>
</svg>
